<svg width="103" height="103" viewBox="0 0 103 103" fill="none" xmlns="http://www.w3.org/2000/svg">
<mask id="path-1-outside-1_19_61" maskUnits="userSpaceOnUse" x="10" y="6" width="84" height="85" fill="black">
<rect fill="white" x="10" y="6" width="84" height="85"/>
<path fill-rule="evenodd" clip-rule="evenodd" d="M83.4447 42.8141C83.8093 41.0924 84 39.3161 84 37.5C84 21.7599 69.6731 9 52 9C34.3269 9 20 21.7599 20 37.5C20 39.3161 20.1907 41.0924 20.5553 42.8141C20.6515 46.5784 18.5688 49.953 17.358 51.915L17.3578 51.9153C17.2271 52.1271 17.1066 52.3224 17 52.5C15.5 55 13.5 58.5 13 62.5C13 66 14.4 69.7 16 72.5C17.3407 74.8461 16.2006 78.5262 15.1094 80.8342L15.0678 80.9221C14.7073 81.6838 14.3413 82.4568 14.2866 83.2966C14.1647 85.1705 14.8117 87.5 18 87.5H28H39.5C45.0228 87.5 49.5 83.0229 49.5 77.5V76.0515C38.5269 74.8103 30 65.497 30 54.192V50.4359V40.2408V37.3105C30 36.2765 30.4943 35.3035 31.3555 34.7312C32.5684 33.9254 34.3388 32.8229 35.5632 32.3813C41.6539 30.185 47.7449 25.1673 49.9094 23.2745C50.3676 22.8739 51.0675 22.9155 51.4666 23.375L55.703 28.2521C55.7384 28.2929 55.7727 28.3306 55.8106 28.369C56.2538 28.8173 59.3478 31.8663 63.2683 33.6791C65.7626 34.8325 68.5432 35.3239 70.6489 35.5295C72.4714 35.7074 74 37.1905 74 39.0217V40.2408V49.3415V54.192C74 65.497 65.4731 74.8103 54.5 76.0515V77.5C54.5 83.0229 58.9772 87.5 64.5 87.5H76H86C89.1883 87.5 89.8353 85.1705 89.7134 83.2966C89.6587 82.4568 89.2928 81.6838 88.9322 80.9222L88.9322 80.9221L88.8906 80.8342C87.7994 78.5262 86.6593 74.8461 88 72.5C89.6 69.7 91 66 91 62.5C90.5 58.5 88.5 55 87 52.5C86.8934 52.3224 86.7728 52.127 86.6421 51.9151L86.642 51.915C85.4312 49.953 83.3485 46.5784 83.4447 42.8141Z"/>
</mask>
<path fill-rule="evenodd" clip-rule="evenodd" d="M83.4447 42.8141C83.8093 41.0924 84 39.3161 84 37.5C84 21.7599 69.6731 9 52 9C34.3269 9 20 21.7599 20 37.5C20 39.3161 20.1907 41.0924 20.5553 42.8141C20.6515 46.5784 18.5688 49.953 17.358 51.915L17.3578 51.9153C17.2271 52.1271 17.1066 52.3224 17 52.5C15.5 55 13.5 58.5 13 62.5C13 66 14.4 69.7 16 72.5C17.3407 74.8461 16.2006 78.5262 15.1094 80.8342L15.0678 80.9221C14.7073 81.6838 14.3413 82.4568 14.2866 83.2966C14.1647 85.1705 14.8117 87.5 18 87.5H28H39.5C45.0228 87.5 49.5 83.0229 49.5 77.5V76.0515C38.5269 74.8103 30 65.497 30 54.192V50.4359V40.2408V37.3105C30 36.2765 30.4943 35.3035 31.3555 34.7312C32.5684 33.9254 34.3388 32.8229 35.5632 32.3813C41.6539 30.185 47.7449 25.1673 49.9094 23.2745C50.3676 22.8739 51.0675 22.9155 51.4666 23.375L55.703 28.2521C55.7384 28.2929 55.7727 28.3306 55.8106 28.369C56.2538 28.8173 59.3478 31.8663 63.2683 33.6791C65.7626 34.8325 68.5432 35.3239 70.6489 35.5295C72.4714 35.7074 74 37.1905 74 39.0217V40.2408V49.3415V54.192C74 65.497 65.4731 74.8103 54.5 76.0515V77.5C54.5 83.0229 58.9772 87.5 64.5 87.5H76H86C89.1883 87.5 89.8353 85.1705 89.7134 83.2966C89.6587 82.4568 89.2928 81.6838 88.9322 80.9222L88.9322 80.9221L88.8906 80.8342C87.7994 78.5262 86.6593 74.8461 88 72.5C89.6 69.7 91 66 91 62.5C90.5 58.5 88.5 55 87 52.5C86.8934 52.3224 86.7728 52.127 86.6421 51.9151L86.642 51.915C85.4312 49.953 83.3485 46.5784 83.4447 42.8141Z" fill="#B8C1EC"/>
<path d="M83.4447 42.8141L80.7055 42.2341L80.6522 42.4856L80.6456 42.7426L83.4447 42.8141ZM20.5553 42.8141L23.3544 42.7426L23.3478 42.4856L23.2946 42.2341L20.5553 42.8141ZM17.358 51.915L19.7271 53.4075L19.734 53.3965L19.7408 53.3855L17.358 51.915ZM17.3578 51.9153L14.9888 50.4228L14.9819 50.4337L14.9751 50.4447L17.3578 51.9153ZM17 52.5L19.401 53.9406L19.401 53.9406L17 52.5ZM13 62.5L10.2216 62.1527L10.2 62.3257V62.5H13ZM16 72.5L18.4311 71.1108H18.4311L16 72.5ZM15.1094 80.8342L17.6404 82.0319L17.6408 82.031L15.1094 80.8342ZM15.0678 80.9221L17.5986 82.1202L17.5988 82.1198L15.0678 80.9221ZM14.2866 83.2966L11.4925 83.1149H11.4925L14.2866 83.2966ZM49.5 76.0515H52.3V73.5504L49.8147 73.2693L49.5 76.0515ZM31.3555 34.7312L29.806 32.3991H29.806L31.3555 34.7312ZM35.5632 32.3813L34.6134 29.7473L34.6133 29.7474L35.5632 32.3813ZM49.9094 23.2745L48.0663 21.1667V21.1667L49.9094 23.2745ZM51.4666 23.375L49.3527 25.2112L49.3527 25.2112L51.4666 23.375ZM55.703 28.2521L57.8169 26.416L57.8168 26.416L55.703 28.2521ZM55.8106 28.369L53.8193 30.3374L53.8193 30.3374L55.8106 28.369ZM63.2683 33.6791L64.4435 31.1377L63.2683 33.6791ZM70.6489 35.5295L70.921 32.7427L70.6489 35.5295ZM54.5 76.0515L54.1853 73.2693L51.7 73.5504V76.0515H54.5ZM89.7134 83.2966L92.5075 83.1149V83.1148L89.7134 83.2966ZM88.9322 80.9222L86.2759 81.8076L86.3292 81.9677L86.4015 82.1203L88.9322 80.9222ZM88.9322 80.9221L91.5885 80.0367L91.5352 79.8767L91.463 79.7243L88.9322 80.9221ZM88.8906 80.8342L86.3592 82.031L86.3597 82.032L88.8906 80.8342ZM88 72.5L85.5689 71.1108L88 72.5ZM91 62.5H93.8V62.3257L93.7784 62.1527L91 62.5ZM87 52.5L84.599 53.9405L84.599 53.9406L87 52.5ZM86.6421 51.9151L84.211 53.3043L84.2345 53.3455L84.2594 53.3858L86.6421 51.9151ZM86.642 51.915L89.0731 50.5258L89.0496 50.4847L89.0247 50.4444L86.642 51.915ZM81.2 37.5C81.2 39.1193 81.03 40.7013 80.7055 42.2341L86.184 43.3942C86.5885 41.4836 86.8 39.5128 86.8 37.5H81.2ZM52 11.8C68.4405 11.8 81.2 23.6024 81.2 37.5H86.8C86.8 19.9174 70.9058 6.2 52 6.2V11.8ZM22.8 37.5C22.8 23.6024 35.5595 11.8 52 11.8V6.2C33.0942 6.2 17.2 19.9174 17.2 37.5H22.8ZM23.2946 42.2341C22.97 40.7013 22.8 39.1193 22.8 37.5H17.2C17.2 39.5128 17.4115 41.4836 17.816 43.3942L23.2946 42.2341ZM19.7408 53.3855C20.8943 51.5164 23.4749 47.4589 23.3544 42.7426L17.7562 42.8857C17.8281 45.6979 16.2434 48.3897 14.9752 50.4444L19.7408 53.3855ZM19.7269 53.4078L19.7271 53.4075L14.9889 50.4225L14.9888 50.4228L19.7269 53.4078ZM19.401 53.9406C19.4967 53.781 19.6074 53.6015 19.7406 53.3858L14.9751 50.4447C14.8468 50.6526 14.7164 50.8638 14.599 51.0594L19.401 53.9406ZM15.7784 62.8473C16.1977 59.4926 17.899 56.444 19.401 53.9406L14.599 51.0594C13.101 53.556 10.8023 57.5074 10.2216 62.1527L15.7784 62.8473ZM18.4311 71.1108C16.9653 68.5457 15.8 65.3341 15.8 62.5H10.2C10.2 66.6659 11.8347 70.8543 13.5689 73.8892L18.4311 71.1108ZM17.6408 82.031C18.2572 80.7272 18.9181 78.9786 19.2275 77.1481C19.5262 75.3807 19.57 73.1039 18.4311 71.1108L13.5689 73.8892C13.7707 74.2422 13.9147 74.9786 13.7058 76.2148C13.5075 77.3878 13.0529 78.6332 12.5781 79.6375L17.6408 82.031ZM17.5988 82.1198L17.6404 82.0319L12.5785 79.6365L12.5369 79.7244L17.5988 82.1198ZM17.0807 83.4784C17.0947 83.2629 17.1941 82.9746 17.5986 82.1202L12.5371 79.724C12.2204 80.3929 11.5878 81.6507 11.4925 83.1149L17.0807 83.4784ZM18 84.7C17.5434 84.7 17.3408 84.6174 17.2864 84.5908C17.2459 84.571 17.2417 84.5628 17.2309 84.5466C17.208 84.5123 17.155 84.4132 17.116 84.2116C17.0769 84.0097 17.0625 83.7583 17.0807 83.4784L11.4925 83.1149C11.4115 84.36 11.5483 86.12 12.5731 87.6554C13.7211 89.3754 15.6313 90.3 18 90.3V84.7ZM28 84.7H18V90.3H28V84.7ZM39.5 84.7H28V90.3H39.5V84.7ZM46.7 77.5C46.7 81.4765 43.4764 84.7 39.5 84.7V90.3C46.5692 90.3 52.3 84.5692 52.3 77.5H46.7ZM46.7 76.0515V77.5H52.3V76.0515H46.7ZM49.8147 73.2693C40.2411 72.1864 32.8 64.0562 32.8 54.192H27.2C27.2 66.9377 36.8126 77.4343 49.1853 78.8338L49.8147 73.2693ZM32.8 54.192V50.4359H27.2V54.192H32.8ZM32.8 50.4359V40.2408H27.2V50.4359H32.8ZM32.8 40.2408V37.3105H27.2V40.2408H32.8ZM32.8 37.3105C32.8 37.1625 32.867 37.0887 32.9051 37.0634L29.806 32.3991C28.1216 33.5182 27.2 35.3904 27.2 37.3105H32.8ZM32.9051 37.0634C34.1534 36.2339 35.6547 35.3248 36.5131 35.0153L34.6133 29.7474C33.0229 30.3209 30.9833 31.6168 29.806 32.3991L32.9051 37.0634ZM36.513 35.0153C43.1405 32.6254 49.5724 27.2888 51.7526 25.3823L48.0663 21.1667C45.9173 23.0458 40.1672 27.7446 34.6134 29.7473L36.513 35.0153ZM51.7526 25.3823C51.0665 25.9823 49.9895 25.9443 49.3527 25.2112L53.5805 21.5389C52.1454 19.8867 49.6688 19.7654 48.0663 21.1667L51.7526 25.3823ZM49.3527 25.2112L53.5891 30.0883L57.8168 26.416L53.5805 21.5389L49.3527 25.2112ZM53.5891 30.0883C53.6521 30.1608 53.7281 30.2451 53.8193 30.3374L57.802 26.4006C57.809 26.4077 57.8146 26.4137 57.8181 26.4175C57.8213 26.421 57.8214 26.4212 57.8169 26.416L53.5891 30.0883ZM53.8193 30.3374C54.3193 30.8432 57.7013 34.1898 62.0931 36.2206L64.4435 31.1377C60.9943 29.5428 58.1883 26.7915 57.8019 26.4006L53.8193 30.3374ZM62.0931 36.2206C64.9904 37.5603 68.1209 38.096 70.3768 38.3162L70.921 32.7427C68.9654 32.5518 66.5348 32.1047 64.4435 31.1377L62.0931 36.2206ZM70.3768 38.3162C70.6212 38.3401 70.851 38.4553 71.0089 38.6162C71.1586 38.7689 71.2 38.9118 71.2 39.0217H76.8C76.8 35.5574 73.9781 33.0412 70.921 32.7427L70.3768 38.3162ZM71.2 39.0217V40.2408H76.8V39.0217H71.2ZM71.2 40.2408V49.3415H76.8V40.2408H71.2ZM71.2 49.3415V54.192H76.8V49.3415H71.2ZM71.2 54.192C71.2 64.0562 63.7589 72.1864 54.1853 73.2693L54.8147 78.8338C67.1874 77.4343 76.8 66.9377 76.8 54.192H71.2ZM57.3 77.5V76.0515H51.7V77.5H57.3ZM64.5 84.7C60.5236 84.7 57.3 81.4765 57.3 77.5H51.7C51.7 84.5692 57.4308 90.3 64.5 90.3V84.7ZM76 84.7H64.5V90.3H76V84.7ZM86 84.7H76V90.3H86V84.7ZM86.9193 83.4784C86.9375 83.7583 86.9231 84.0097 86.884 84.2116C86.845 84.4132 86.792 84.5123 86.7691 84.5466C86.7583 84.5628 86.7541 84.571 86.7136 84.5908C86.6592 84.6174 86.4566 84.7 86 84.7V90.3C88.3687 90.3 90.2789 89.3754 91.4269 87.6554C92.4517 86.12 92.5885 84.36 92.5075 83.1149L86.9193 83.4784ZM86.4015 82.1203C86.8059 82.9746 86.9053 83.2629 86.9193 83.4784L92.5075 83.1148C92.4122 81.6508 91.7796 80.393 91.4629 79.7241L86.4015 82.1203ZM86.2758 81.8075L86.2759 81.8076L91.5885 80.0367L91.5885 80.0367L86.2758 81.8075ZM86.3597 82.032L86.4013 82.1199L91.463 79.7243L91.4214 79.6364L86.3597 82.032ZM85.5689 71.1108C84.43 73.1039 84.4738 75.3807 84.7725 77.1481C85.0819 78.9786 85.7428 80.7272 86.3592 82.031L91.4219 79.6374C90.9471 78.6332 90.4925 77.3878 90.2942 76.2148C90.0853 74.9786 90.2293 74.2422 90.4311 73.8892L85.5689 71.1108ZM88.2 62.5C88.2 65.3341 87.0347 68.5457 85.5689 71.1108L90.4311 73.8892C92.1653 70.8543 93.8 66.6659 93.8 62.5H88.2ZM84.599 53.9406C86.101 56.444 87.8023 59.4926 88.2216 62.8473L93.7784 62.1527C93.1977 57.5074 90.899 53.556 89.401 51.0594L84.599 53.9406ZM84.2594 53.3858C84.3926 53.6015 84.5033 53.781 84.599 53.9405L89.401 51.0595C89.2836 50.8638 89.1531 50.6525 89.0248 50.4445L84.2594 53.3858ZM84.2109 53.3042L84.211 53.3043L89.0732 50.5259L89.0731 50.5258L84.2109 53.3042ZM80.6456 42.7426C80.5251 47.4589 83.1057 51.5164 84.2592 53.3855L89.0247 50.4444C87.7566 48.3897 86.1719 45.6979 86.2438 42.8857L80.6456 42.7426Z" fill="black" mask="url(#path-1-outside-1_19_61)"/>
<path d="M51 70L37 73.5L54.5 89.5L69 73.5L51 70Z" fill="#EEBBC3"/>
<path d="M28 87.0357V96H76V87.0357C76 79.1273 69.8883 72.5634 62 72L52 85.0435L42 72C34.1117 72.5634 28 79.1273 28 87.0357Z" fill="#232946"/>
<path d="M70.7143 96C70.7143 83.5 68.5 80 61 74L62.7143 71L67.2857 72.0638L74.7143 82.1702L77 96H70.7143Z" fill="#232946"/>
<path d="M28 96V90.8661C28 81.951 33.6043 73.9985 42 71V71L52 87L62 71V71C70.3957 73.9985 76 81.951 76 90.8661V96" stroke="black" stroke-width="2.8" stroke-linecap="round" stroke-linejoin="round"/>
<rect x="23.6" y="49.6" width="10.8" height="9.8" rx="4.9" fill="#EEBBC3" stroke="black" stroke-width="2.8"/>
<rect x="69.6" y="49.6" width="10.8" height="9.8" rx="4.9" fill="#EEBBC3" stroke="black" stroke-width="2.8"/>
<rect x="29.6" y="18.6" width="43.8" height="56.8" rx="21.9" fill="#EEBBC3" stroke="black" stroke-width="2.8"/>
<path d="M58.0778 62H46.951C46.4214 62 45.9772 62.4149 46.0427 62.9405C46.3045 65.041 47.8426 68 52.6629 68C57.5235 68 58.8712 64.9913 58.991 62.888C59.0198 62.3814 58.5852 62 58.0778 62Z" fill="white" stroke="black" stroke-width="2.8"/>
<circle cx="42.5" cy="50.5" r="5.9" fill="white" stroke="black" stroke-width="2.8"/>
<circle cx="39.4" cy="50.4" r="1.4" fill="black"/>
<circle cx="61.5" cy="50.5" r="5.9" fill="white" stroke="black" stroke-width="2.8"/>
<circle cx="58.4" cy="50.4" r="1.4" fill="black"/>
<path d="M39 40.2752C39.6667 39.6085 41.7 38.4752 44.5 39.2752" stroke="black" stroke-width="2.8" stroke-linecap="round"/>
<path d="M64.5 40.2752C63.8333 39.6085 61.8 38.4752 59 39.2752" stroke="black" stroke-width="2.8" stroke-linecap="round"/>
<g clip-path="url(#clip0_19_61)">
<mask id="path-17-outside-2_19_61" maskUnits="userSpaceOnUse" x="10" y="6" width="84" height="85" fill="black">
<rect fill="white" x="10" y="6" width="84" height="85"/>
<path fill-rule="evenodd" clip-rule="evenodd" d="M84 37.5C84 39.3161 83.8093 41.0924 83.4447 42.8141C83.3485 46.5784 85.4312 49.953 86.642 51.915L86.6421 51.9151C86.7728 52.127 86.8934 52.3224 87 52.5C88.5 55 90.5 58.5 91 62.5C91 66 89.6 69.7 88 72.5C86.6593 74.8461 87.7994 78.5262 88.8906 80.8342L88.9322 80.9221L88.9322 80.9222C89.2928 81.6838 89.6587 82.4568 89.7134 83.2966C89.8353 85.1705 89.1883 87.5 86 87.5H76H66H64.5H39.5H38H28H18C14.8117 87.5 14.1647 85.1705 14.2866 83.2966C14.3413 82.4568 14.7073 81.6838 15.0678 80.9221L15.1094 80.8342C16.2006 78.5262 17.3407 74.8461 16 72.5C14.4 69.7 13 66 13 62.5C13.5 58.5 15.5 55 17 52.5C17.1066 52.3224 17.2271 52.1271 17.3578 51.9153L17.358 51.915C18.5688 49.953 20.6515 46.5784 20.5553 42.8141C20.1907 41.0924 20 39.3161 20 37.5C20 21.7599 34.3269 9 52 9C69.6731 9 84 21.7599 84 37.5ZM34.0918 32.3813C32.7917 32.824 30.9104 33.9309 29.6256 34.7373C28.7239 35.3034 28.1998 36.3009 28.1998 37.3656V40.2407V50.4359V52.8919C28.1998 65.7602 38.6316 76.1919 51.4998 76.1919C64.368 76.1919 74.7998 65.7602 74.7998 52.8919V49.3414V40.2407V39.0138C74.7998 37.1856 73.2753 35.7046 71.4539 35.5476C69.2015 35.3534 66.1567 34.8678 63.434 33.6791C59.2775 31.8644 55.9982 28.811 55.5342 28.3676C55.495 28.3301 55.4595 28.2933 55.4228 28.2534L50.8735 23.3083C50.4777 22.878 49.8088 22.8412 49.3586 23.2142C47.1326 25.0585 40.612 30.1612 34.0918 32.3813Z"/>
</mask>
<path fill-rule="evenodd" clip-rule="evenodd" d="M84 37.5C84 39.3161 83.8093 41.0924 83.4447 42.8141C83.3485 46.5784 85.4312 49.953 86.642 51.915L86.6421 51.9151C86.7728 52.127 86.8934 52.3224 87 52.5C88.5 55 90.5 58.5 91 62.5C91 66 89.6 69.7 88 72.5C86.6593 74.8461 87.7994 78.5262 88.8906 80.8342L88.9322 80.9221L88.9322 80.9222C89.2928 81.6838 89.6587 82.4568 89.7134 83.2966C89.8353 85.1705 89.1883 87.5 86 87.5H76H66H64.5H39.5H38H28H18C14.8117 87.5 14.1647 85.1705 14.2866 83.2966C14.3413 82.4568 14.7073 81.6838 15.0678 80.9221L15.1094 80.8342C16.2006 78.5262 17.3407 74.8461 16 72.5C14.4 69.7 13 66 13 62.5C13.5 58.5 15.5 55 17 52.5C17.1066 52.3224 17.2271 52.1271 17.3578 51.9153L17.358 51.915C18.5688 49.953 20.6515 46.5784 20.5553 42.8141C20.1907 41.0924 20 39.3161 20 37.5C20 21.7599 34.3269 9 52 9C69.6731 9 84 21.7599 84 37.5ZM34.0918 32.3813C32.7917 32.824 30.9104 33.9309 29.6256 34.7373C28.7239 35.3034 28.1998 36.3009 28.1998 37.3656V40.2407V50.4359V52.8919C28.1998 65.7602 38.6316 76.1919 51.4998 76.1919C64.368 76.1919 74.7998 65.7602 74.7998 52.8919V49.3414V40.2407V39.0138C74.7998 37.1856 73.2753 35.7046 71.4539 35.5476C69.2015 35.3534 66.1567 34.8678 63.434 33.6791C59.2775 31.8644 55.9982 28.811 55.5342 28.3676C55.495 28.3301 55.4595 28.2933 55.4228 28.2534L50.8735 23.3083C50.4777 22.878 49.8088 22.8412 49.3586 23.2142C47.1326 25.0585 40.612 30.1612 34.0918 32.3813Z" fill="#B8C1EC"/>
<path d="M83.4447 42.8141L80.7055 42.2341L80.6522 42.4856L80.6456 42.7426L83.4447 42.8141ZM86.642 51.915L89.0731 50.5258L89.0496 50.4847L89.0247 50.4444L86.642 51.915ZM86.6421 51.9151L84.211 53.3043L84.2345 53.3455L84.2594 53.3858L86.6421 51.9151ZM87 52.5L84.599 53.9405L84.599 53.9406L87 52.5ZM91 62.5H93.8V62.3257L93.7784 62.1527L91 62.5ZM88 72.5L85.5689 71.1108L88 72.5ZM88.8906 80.8342L86.3592 82.031L86.3597 82.032L88.8906 80.8342ZM88.9322 80.9221L91.5885 80.0367L91.5352 79.8767L91.463 79.7243L88.9322 80.9221ZM88.9322 80.9222L86.2759 81.8076L86.3292 81.9677L86.4015 82.1203L88.9322 80.9222ZM89.7134 83.2966L92.5075 83.1149V83.1148L89.7134 83.2966ZM14.2866 83.2966L11.4925 83.1149H11.4925L14.2866 83.2966ZM15.0678 80.9221L17.5986 82.1202L17.5988 82.1198L15.0678 80.9221ZM15.1094 80.8342L17.6404 82.0319L17.6408 82.031L15.1094 80.8342ZM16 72.5L18.4311 71.1108H18.4311L16 72.5ZM13 62.5L10.2216 62.1527L10.2 62.3257V62.5H13ZM17 52.5L19.401 53.9406L19.401 53.9406L17 52.5ZM17.3578 51.9153L14.9888 50.4228L14.9819 50.4337L14.9751 50.4447L17.3578 51.9153ZM17.358 51.915L19.7271 53.4075L19.734 53.3965L19.7408 53.3855L17.358 51.915ZM20.5553 42.8141L23.3544 42.7426L23.3478 42.4856L23.2946 42.2341L20.5553 42.8141ZM29.6256 34.7373L28.1371 32.3658L28.1371 32.3658L29.6256 34.7373ZM34.0918 32.3813L33.1893 29.7307L33.1892 29.7307L34.0918 32.3813ZM71.4539 35.5476L71.2134 38.3372H71.2134L71.4539 35.5476ZM63.434 33.6791L64.5543 31.113H64.5543L63.434 33.6791ZM55.5342 28.3676L53.5998 30.392L53.5998 30.392L55.5342 28.3676ZM55.4228 28.2534L53.3621 30.1491L53.3621 30.1491L55.4228 28.2534ZM50.8735 23.3083L48.8129 25.204L48.8129 25.204L50.8735 23.3083ZM49.3586 23.2142L47.5722 21.0581L47.5722 21.0581L49.3586 23.2142ZM86.184 43.3942C86.5885 41.4836 86.8 39.5128 86.8 37.5H81.2C81.2 39.1193 81.03 40.7013 80.7055 42.2341L86.184 43.3942ZM89.0247 50.4444C87.7566 48.3897 86.1719 45.6979 86.2438 42.8857L80.6456 42.7426C80.5251 47.4589 83.1057 51.5164 84.2592 53.3855L89.0247 50.4444ZM89.0732 50.5259L89.0731 50.5258L84.2109 53.3042L84.211 53.3043L89.0732 50.5259ZM89.401 51.0595C89.2836 50.8638 89.1531 50.6525 89.0248 50.4445L84.2594 53.3858C84.3926 53.6015 84.5033 53.781 84.599 53.9405L89.401 51.0595ZM93.7784 62.1527C93.1977 57.5074 90.899 53.556 89.401 51.0594L84.599 53.9406C86.101 56.444 87.8023 59.4926 88.2216 62.8473L93.7784 62.1527ZM90.4311 73.8892C92.1653 70.8543 93.8 66.6659 93.8 62.5H88.2C88.2 65.3341 87.0347 68.5457 85.5689 71.1108L90.4311 73.8892ZM91.4219 79.6374C90.9471 78.6332 90.4925 77.3878 90.2942 76.2148C90.0853 74.9786 90.2293 74.2422 90.4311 73.8892L85.5689 71.1108C84.43 73.1039 84.4738 75.3807 84.7725 77.1481C85.0819 78.9786 85.7428 80.7272 86.3592 82.031L91.4219 79.6374ZM91.463 79.7243L91.4214 79.6364L86.3597 82.032L86.4013 82.1199L91.463 79.7243ZM91.5885 80.0367L91.5885 80.0367L86.2758 81.8075L86.2759 81.8076L91.5885 80.0367ZM92.5075 83.1148C92.4122 81.6508 91.7796 80.393 91.4629 79.7241L86.4015 82.1203C86.8059 82.9746 86.9053 83.2629 86.9193 83.4784L92.5075 83.1148ZM86 90.3C88.3687 90.3 90.2789 89.3754 91.4269 87.6554C92.4517 86.12 92.5885 84.36 92.5075 83.1149L86.9193 83.4784C86.9375 83.7583 86.9231 84.0097 86.884 84.2116C86.845 84.4132 86.792 84.5123 86.7691 84.5466C86.7583 84.5628 86.7541 84.571 86.7136 84.5908C86.6592 84.6174 86.4566 84.7 86 84.7V90.3ZM76 90.3H86V84.7H76V90.3ZM66 90.3H76V84.7H66V90.3ZM64.5 90.3H66V84.7H64.5V90.3ZM39.5 90.3H64.5V84.7H39.5V90.3ZM38 90.3H39.5V84.7H38V90.3ZM28 90.3H38V84.7H28V90.3ZM18 90.3H28V84.7H18V90.3ZM11.4925 83.1149C11.4115 84.36 11.5483 86.12 12.5731 87.6554C13.7211 89.3754 15.6313 90.3 18 90.3V84.7C17.5434 84.7 17.3408 84.6174 17.2864 84.5908C17.2459 84.571 17.2417 84.5628 17.2309 84.5466C17.208 84.5123 17.155 84.4132 17.116 84.2116C17.0769 84.0097 17.0625 83.7583 17.0807 83.4784L11.4925 83.1149ZM12.5371 79.724C12.2204 80.3929 11.5878 81.6507 11.4925 83.1149L17.0807 83.4784C17.0947 83.2629 17.1941 82.9746 17.5986 82.1202L12.5371 79.724ZM12.5785 79.6365L12.5369 79.7244L17.5988 82.1198L17.6404 82.0319L12.5785 79.6365ZM13.5689 73.8892C13.7707 74.2422 13.9147 74.9786 13.7058 76.2148C13.5075 77.3878 13.0529 78.6332 12.5781 79.6375L17.6408 82.031C18.2572 80.7272 18.9181 78.9786 19.2275 77.1481C19.5262 75.3807 19.57 73.1039 18.4311 71.1108L13.5689 73.8892ZM10.2 62.5C10.2 66.6659 11.8347 70.8543 13.5689 73.8892L18.4311 71.1108C16.9653 68.5457 15.8 65.3341 15.8 62.5H10.2ZM14.599 51.0594C13.101 53.556 10.8023 57.5074 10.2216 62.1527L15.7784 62.8473C16.1977 59.4926 17.899 56.444 19.401 53.9406L14.599 51.0594ZM14.9751 50.4447C14.8468 50.6526 14.7164 50.8638 14.599 51.0594L19.401 53.9406C19.4967 53.781 19.6074 53.6015 19.7406 53.3858L14.9751 50.4447ZM14.9889 50.4225L14.9888 50.4228L19.7269 53.4078L19.7271 53.4075L14.9889 50.4225ZM17.7562 42.8857C17.8281 45.6979 16.2434 48.3897 14.9752 50.4444L19.7408 53.3855C20.8943 51.5164 23.4749 47.4589 23.3544 42.7426L17.7562 42.8857ZM17.2 37.5C17.2 39.5128 17.4115 41.4836 17.816 43.3942L23.2946 42.2341C22.97 40.7013 22.8 39.1193 22.8 37.5H17.2ZM52 6.2C33.0942 6.2 17.2 19.9174 17.2 37.5H22.8C22.8 23.6024 35.5595 11.8 52 11.8V6.2ZM86.8 37.5C86.8 19.9174 70.9058 6.2 52 6.2V11.8C68.4405 11.8 81.2 23.6024 81.2 37.5H86.8ZM31.1142 37.1089C32.4318 36.2819 34.0494 35.3536 34.9943 35.0318L33.1892 29.7307C31.534 30.2944 29.389 31.58 28.1371 32.3658L31.1142 37.1089ZM30.9998 37.3656C30.9998 37.2138 31.0704 37.1364 31.1142 37.1089L28.1371 32.3658C26.3773 33.4703 25.3998 35.388 25.3998 37.3656H30.9998ZM30.9998 40.2407V37.3656H25.3998V40.2407H30.9998ZM30.9998 50.4359V40.2407H25.3998V50.4359H30.9998ZM30.9998 52.8919V50.4359H25.3998V52.8919H30.9998ZM51.4998 73.3919C40.178 73.3919 30.9998 64.2138 30.9998 52.8919H25.3998C25.3998 67.3066 37.0852 78.9919 51.4998 78.9919V73.3919ZM71.9998 52.8919C71.9998 64.2138 62.8216 73.3919 51.4998 73.3919V78.9919C65.9144 78.9919 77.5998 67.3066 77.5998 52.8919H71.9998ZM71.9998 49.3414V52.8919H77.5998V49.3414H71.9998ZM71.9998 40.2407V49.3414H77.5998V40.2407H71.9998ZM71.9998 39.0138V40.2407H77.5998V39.0138H71.9998ZM71.2134 38.3372C71.4449 38.3572 71.6633 38.4647 71.8146 38.6184C71.9582 38.7643 71.9998 38.9037 71.9998 39.0138H77.5998C77.5998 35.5576 74.7827 33.0242 71.6944 32.7579L71.2134 38.3372ZM62.3136 36.2452C65.4352 37.6081 68.8228 38.1312 71.2134 38.3372L71.6944 32.7579C69.5801 32.5757 66.8782 32.1276 64.5543 31.113L62.3136 36.2452ZM53.5998 30.392C54.1263 30.8951 57.6942 34.2284 62.3136 36.2452L64.5543 31.113C60.8608 29.5005 57.87 26.7268 57.4686 26.3432L53.5998 30.392ZM53.3621 30.1491C53.4275 30.2202 53.5059 30.3023 53.5998 30.392L57.4686 26.3432C57.4757 26.35 57.4813 26.3557 57.4848 26.3593C57.4881 26.3626 57.4881 26.3628 57.4835 26.3577L53.3621 30.1491ZM48.8129 25.204L53.3621 30.1491L57.4835 26.3577L52.9342 21.4126L48.8129 25.204ZM51.145 25.3703C50.4787 25.9224 49.4527 25.8995 48.8129 25.204L52.9342 21.4126C51.5026 19.8564 49.1389 19.76 47.5722 21.0581L51.145 25.3703ZM34.9942 35.0318C42.0398 32.633 48.8995 27.2308 51.145 25.3703L47.5722 21.0581C45.3657 22.8862 39.1842 27.6895 33.1893 29.7307L34.9942 35.0318Z" fill="black" mask="url(#path-17-outside-2_19_61)"/>
</g>
<mask id="mask0_19_61" style="mask-type:alpha" maskUnits="userSpaceOnUse" x="10" y="6" width="84" height="85">
<mask id="path-19-outside-3_19_61" maskUnits="userSpaceOnUse" x="10" y="6" width="84" height="85" fill="black">
<rect fill="white" x="10" y="6" width="84" height="85"/>
<path fill-rule="evenodd" clip-rule="evenodd" d="M83.4447 42.8141C83.8093 41.0924 84 39.3161 84 37.5C84 21.7599 69.6731 9 52 9C34.3269 9 20 21.7599 20 37.5C20 39.3161 20.1907 41.0924 20.5553 42.8141C20.6515 46.5784 18.5688 49.953 17.358 51.915L17.3578 51.9153C17.2271 52.1271 17.1066 52.3224 17 52.5C15.5 55 13.5 58.5 13 62.5C13 66 14.4 69.7 16 72.5C17.3407 74.8461 16.2006 78.5262 15.1094 80.8342L15.0678 80.9221C14.7073 81.6838 14.3413 82.4568 14.2866 83.2966C14.1647 85.1705 14.8117 87.5 18 87.5H28H39.5C45.0228 87.5 49.5 83.0229 49.5 77.5V76.0515C38.5269 74.8103 30 65.497 30 54.192V50.4359V40.2408V37.3105C30 36.2765 30.4943 35.3035 31.3555 34.7312C32.5684 33.9254 34.3388 32.8229 35.5632 32.3813C41.6539 30.185 47.7449 25.1673 49.9094 23.2745C50.3676 22.8739 51.0675 22.9155 51.4666 23.375L55.703 28.2521C55.7384 28.2929 55.7727 28.3306 55.8106 28.369C56.2538 28.8173 59.3478 31.8663 63.2683 33.6791C65.7626 34.8325 68.5432 35.3239 70.6489 35.5295C72.4714 35.7074 74 37.1905 74 39.0217V40.2408V49.3415V54.192C74 65.497 65.4731 74.8103 54.5 76.0515V77.5C54.5 83.0229 58.9772 87.5 64.5 87.5H76H86C89.1883 87.5 89.8353 85.1705 89.7134 83.2966C89.6587 82.4568 89.2928 81.6838 88.9322 80.9222L88.9322 80.9221L88.8906 80.8342C87.7994 78.5262 86.6593 74.8461 88 72.5C89.6 69.7 91 66 91 62.5C90.5 58.5 88.5 55 87 52.5C86.8934 52.3224 86.7728 52.127 86.6421 51.9151L86.642 51.915C85.4312 49.953 83.3485 46.5784 83.4447 42.8141Z"/>
</mask>
<path fill-rule="evenodd" clip-rule="evenodd" d="M83.4447 42.8141C83.8093 41.0924 84 39.3161 84 37.5C84 21.7599 69.6731 9 52 9C34.3269 9 20 21.7599 20 37.5C20 39.3161 20.1907 41.0924 20.5553 42.8141C20.6515 46.5784 18.5688 49.953 17.358 51.915L17.3578 51.9153C17.2271 52.1271 17.1066 52.3224 17 52.5C15.5 55 13.5 58.5 13 62.5C13 66 14.4 69.7 16 72.5C17.3407 74.8461 16.2006 78.5262 15.1094 80.8342L15.0678 80.9221C14.7073 81.6838 14.3413 82.4568 14.2866 83.2966C14.1647 85.1705 14.8117 87.5 18 87.5H28H39.5C45.0228 87.5 49.5 83.0229 49.5 77.5V76.0515C38.5269 74.8103 30 65.497 30 54.192V50.4359V40.2408V37.3105C30 36.2765 30.4943 35.3035 31.3555 34.7312C32.5684 33.9254 34.3388 32.8229 35.5632 32.3813C41.6539 30.185 47.7449 25.1673 49.9094 23.2745C50.3676 22.8739 51.0675 22.9155 51.4666 23.375L55.703 28.2521C55.7384 28.2929 55.7727 28.3306 55.8106 28.369C56.2538 28.8173 59.3478 31.8663 63.2683 33.6791C65.7626 34.8325 68.5432 35.3239 70.6489 35.5295C72.4714 35.7074 74 37.1905 74 39.0217V40.2408V49.3415V54.192C74 65.497 65.4731 74.8103 54.5 76.0515V77.5C54.5 83.0229 58.9772 87.5 64.5 87.5H76H86C89.1883 87.5 89.8353 85.1705 89.7134 83.2966C89.6587 82.4568 89.2928 81.6838 88.9322 80.9222L88.9322 80.9221L88.8906 80.8342C87.7994 78.5262 86.6593 74.8461 88 72.5C89.6 69.7 91 66 91 62.5C90.5 58.5 88.5 55 87 52.5C86.8934 52.3224 86.7728 52.127 86.6421 51.9151L86.642 51.915C85.4312 49.953 83.3485 46.5784 83.4447 42.8141Z" fill="#8667FF"/>
<path d="M83.4447 42.8141L80.7055 42.2341L80.6522 42.4856L80.6456 42.7426L83.4447 42.8141ZM20.5553 42.8141L23.3544 42.7426L23.3478 42.4856L23.2946 42.2341L20.5553 42.8141ZM17.358 51.915L19.7271 53.4075L19.734 53.3965L19.7408 53.3855L17.358 51.915ZM17.3578 51.9153L14.9888 50.4228L14.9819 50.4337L14.9751 50.4447L17.3578 51.9153ZM17 52.5L19.401 53.9406L19.401 53.9406L17 52.5ZM13 62.5L10.2216 62.1527L10.2 62.3257V62.5H13ZM16 72.5L18.4311 71.1108H18.4311L16 72.5ZM15.1094 80.8342L17.6404 82.0319L17.6408 82.031L15.1094 80.8342ZM15.0678 80.9221L17.5986 82.1202L17.5988 82.1198L15.0678 80.9221ZM14.2866 83.2966L11.4925 83.1149H11.4925L14.2866 83.2966ZM49.5 76.0515H52.3V73.5504L49.8147 73.2693L49.5 76.0515ZM31.3555 34.7312L29.806 32.3991H29.806L31.3555 34.7312ZM35.5632 32.3813L34.6134 29.7473L34.6133 29.7474L35.5632 32.3813ZM49.9094 23.2745L48.0663 21.1667V21.1667L49.9094 23.2745ZM51.4666 23.375L49.3527 25.2112L49.3527 25.2112L51.4666 23.375ZM55.703 28.2521L57.8169 26.416L57.8168 26.416L55.703 28.2521ZM55.8106 28.369L53.8193 30.3374L53.8193 30.3374L55.8106 28.369ZM63.2683 33.6791L64.4435 31.1377L63.2683 33.6791ZM70.6489 35.5295L70.921 32.7427L70.6489 35.5295ZM54.5 76.0515L54.1853 73.2693L51.7 73.5504V76.0515H54.5ZM89.7134 83.2966L92.5075 83.1149V83.1148L89.7134 83.2966ZM88.9322 80.9222L86.2759 81.8076L86.3292 81.9677L86.4015 82.1203L88.9322 80.9222ZM88.9322 80.9221L91.5885 80.0367L91.5352 79.8767L91.463 79.7243L88.9322 80.9221ZM88.8906 80.8342L86.3592 82.031L86.3597 82.032L88.8906 80.8342ZM88 72.5L85.5689 71.1108L88 72.5ZM91 62.5H93.8V62.3257L93.7784 62.1527L91 62.5ZM87 52.5L84.599 53.9405L84.599 53.9406L87 52.5ZM86.6421 51.9151L84.211 53.3043L84.2345 53.3455L84.2594 53.3858L86.6421 51.9151ZM86.642 51.915L89.0731 50.5258L89.0496 50.4847L89.0247 50.4444L86.642 51.915ZM81.2 37.5C81.2 39.1193 81.03 40.7013 80.7055 42.2341L86.184 43.3942C86.5885 41.4836 86.8 39.5128 86.8 37.5H81.2ZM52 11.8C68.4405 11.8 81.2 23.6024 81.2 37.5H86.8C86.8 19.9174 70.9058 6.2 52 6.2V11.8ZM22.8 37.5C22.8 23.6024 35.5595 11.8 52 11.8V6.2C33.0942 6.2 17.2 19.9174 17.2 37.5H22.8ZM23.2946 42.2341C22.97 40.7013 22.8 39.1193 22.8 37.5H17.2C17.2 39.5128 17.4115 41.4836 17.816 43.3942L23.2946 42.2341ZM19.7408 53.3855C20.8943 51.5164 23.4749 47.4589 23.3544 42.7426L17.7562 42.8857C17.8281 45.6979 16.2434 48.3897 14.9752 50.4444L19.7408 53.3855ZM19.7269 53.4078L19.7271 53.4075L14.9889 50.4225L14.9888 50.4228L19.7269 53.4078ZM19.401 53.9406C19.4967 53.781 19.6074 53.6015 19.7406 53.3858L14.9751 50.4447C14.8468 50.6526 14.7164 50.8638 14.599 51.0594L19.401 53.9406ZM15.7784 62.8473C16.1977 59.4926 17.899 56.444 19.401 53.9406L14.599 51.0594C13.101 53.556 10.8023 57.5074 10.2216 62.1527L15.7784 62.8473ZM18.4311 71.1108C16.9653 68.5457 15.8 65.3341 15.8 62.5H10.2C10.2 66.6659 11.8347 70.8543 13.5689 73.8892L18.4311 71.1108ZM17.6408 82.031C18.2572 80.7272 18.9181 78.9786 19.2275 77.1481C19.5262 75.3807 19.57 73.1039 18.4311 71.1108L13.5689 73.8892C13.7707 74.2422 13.9147 74.9786 13.7058 76.2148C13.5075 77.3878 13.0529 78.6332 12.5781 79.6375L17.6408 82.031ZM17.5988 82.1198L17.6404 82.0319L12.5785 79.6365L12.5369 79.7244L17.5988 82.1198ZM17.0807 83.4784C17.0947 83.2629 17.1941 82.9746 17.5986 82.1202L12.5371 79.724C12.2204 80.3929 11.5878 81.6507 11.4925 83.1149L17.0807 83.4784ZM18 84.7C17.5434 84.7 17.3408 84.6174 17.2864 84.5908C17.2459 84.571 17.2417 84.5628 17.2309 84.5466C17.208 84.5123 17.155 84.4132 17.116 84.2116C17.0769 84.0097 17.0625 83.7583 17.0807 83.4784L11.4925 83.1149C11.4115 84.36 11.5483 86.12 12.5731 87.6554C13.7211 89.3754 15.6313 90.3 18 90.3V84.7ZM28 84.7H18V90.3H28V84.7ZM39.5 84.7H28V90.3H39.5V84.7ZM46.7 77.5C46.7 81.4765 43.4764 84.7 39.5 84.7V90.3C46.5692 90.3 52.3 84.5692 52.3 77.5H46.7ZM46.7 76.0515V77.5H52.3V76.0515H46.7ZM49.8147 73.2693C40.2411 72.1864 32.8 64.0562 32.8 54.192H27.2C27.2 66.9377 36.8126 77.4343 49.1853 78.8338L49.8147 73.2693ZM32.8 54.192V50.4359H27.2V54.192H32.8ZM32.8 50.4359V40.2408H27.2V50.4359H32.8ZM32.8 40.2408V37.3105H27.2V40.2408H32.8ZM32.8 37.3105C32.8 37.1625 32.867 37.0887 32.9051 37.0634L29.806 32.3991C28.1216 33.5182 27.2 35.3904 27.2 37.3105H32.8ZM32.9051 37.0634C34.1534 36.2339 35.6547 35.3248 36.5131 35.0153L34.6133 29.7474C33.0229 30.3209 30.9833 31.6168 29.806 32.3991L32.9051 37.0634ZM36.513 35.0153C43.1405 32.6254 49.5724 27.2888 51.7526 25.3823L48.0663 21.1667C45.9173 23.0458 40.1672 27.7446 34.6134 29.7473L36.513 35.0153ZM51.7526 25.3823C51.0665 25.9823 49.9895 25.9443 49.3527 25.2112L53.5805 21.5389C52.1454 19.8867 49.6688 19.7654 48.0663 21.1667L51.7526 25.3823ZM49.3527 25.2112L53.5891 30.0883L57.8168 26.416L53.5805 21.5389L49.3527 25.2112ZM53.5891 30.0883C53.6521 30.1608 53.7281 30.2451 53.8193 30.3374L57.802 26.4006C57.809 26.4077 57.8146 26.4137 57.8181 26.4175C57.8213 26.421 57.8214 26.4212 57.8169 26.416L53.5891 30.0883ZM53.8193 30.3374C54.3193 30.8432 57.7013 34.1898 62.0931 36.2206L64.4435 31.1377C60.9943 29.5428 58.1883 26.7915 57.8019 26.4006L53.8193 30.3374ZM62.0931 36.2206C64.9904 37.5603 68.1209 38.096 70.3768 38.3162L70.921 32.7427C68.9654 32.5518 66.5348 32.1047 64.4435 31.1377L62.0931 36.2206ZM70.3768 38.3162C70.6212 38.3401 70.851 38.4553 71.0089 38.6162C71.1586 38.7689 71.2 38.9118 71.2 39.0217H76.8C76.8 35.5574 73.9781 33.0412 70.921 32.7427L70.3768 38.3162ZM71.2 39.0217V40.2408H76.8V39.0217H71.2ZM71.2 40.2408V49.3415H76.8V40.2408H71.2ZM71.2 49.3415V54.192H76.8V49.3415H71.2ZM71.2 54.192C71.2 64.0562 63.7589 72.1864 54.1853 73.2693L54.8147 78.8338C67.1874 77.4343 76.8 66.9377 76.8 54.192H71.2ZM57.3 77.5V76.0515H51.7V77.5H57.3ZM64.5 84.7C60.5236 84.7 57.3 81.4765 57.3 77.5H51.7C51.7 84.5692 57.4308 90.3 64.5 90.3V84.7ZM76 84.7H64.5V90.3H76V84.7ZM86 84.7H76V90.3H86V84.7ZM86.9193 83.4784C86.9375 83.7583 86.9231 84.0097 86.884 84.2116C86.845 84.4132 86.792 84.5123 86.7691 84.5466C86.7583 84.5628 86.7541 84.571 86.7136 84.5908C86.6592 84.6174 86.4566 84.7 86 84.7V90.3C88.3687 90.3 90.2789 89.3754 91.4269 87.6554C92.4517 86.12 92.5885 84.36 92.5075 83.1149L86.9193 83.4784ZM86.4015 82.1203C86.8059 82.9746 86.9053 83.2629 86.9193 83.4784L92.5075 83.1148C92.4122 81.6508 91.7796 80.393 91.4629 79.7241L86.4015 82.1203ZM86.2758 81.8075L86.2759 81.8076L91.5885 80.0367L91.5885 80.0367L86.2758 81.8075ZM86.3597 82.032L86.4013 82.1199L91.463 79.7243L91.4214 79.6364L86.3597 82.032ZM85.5689 71.1108C84.43 73.1039 84.4738 75.3807 84.7725 77.1481C85.0819 78.9786 85.7428 80.7272 86.3592 82.031L91.4219 79.6374C90.9471 78.6332 90.4925 77.3878 90.2942 76.2148C90.0853 74.9786 90.2293 74.2422 90.4311 73.8892L85.5689 71.1108ZM88.2 62.5C88.2 65.3341 87.0347 68.5457 85.5689 71.1108L90.4311 73.8892C92.1653 70.8543 93.8 66.6659 93.8 62.5H88.2ZM84.599 53.9406C86.101 56.444 87.8023 59.4926 88.2216 62.8473L93.7784 62.1527C93.1977 57.5074 90.899 53.556 89.401 51.0594L84.599 53.9406ZM84.2594 53.3858C84.3926 53.6015 84.5033 53.781 84.599 53.9405L89.401 51.0595C89.2836 50.8638 89.1531 50.6525 89.0248 50.4445L84.2594 53.3858ZM84.2109 53.3042L84.211 53.3043L89.0732 50.5259L89.0731 50.5258L84.2109 53.3042ZM80.6456 42.7426C80.5251 47.4589 83.1057 51.5164 84.2592 53.3855L89.0247 50.4444C87.7566 48.3897 86.1719 45.6979 86.2438 42.8857L80.6456 42.7426Z" fill="#1300EE" mask="url(#path-19-outside-3_19_61)"/>
</mask>
<g mask="url(#mask0_19_61)">
<g style="mix-blend-mode:soft-light">
<path d="M73.8921 20.3345C69.413 13.7145 63.8464 10.8629 61 10.2299C73.7729 5.00326 88.0821 13.046 90.2571 26.6744L93.3882 46.2932C93.795 48.8417 93.9332 51.4258 93.8006 54.0031L92.5395 78.5139C92.2372 84.3904 87.3843 89 81.5 89C82.6667 88.1475 85 85.8287 85 83.3736C85 80.3046 83 77.2356 83 74.1667C83 71.0977 86.5 68.0287 86 62.4023C85.5 56.7759 82.5 55.7529 80.5 50.1264C79.5869 47.5576 78.956 42.6453 78.5517 37.9187C78.0267 31.7814 77.3438 25.4361 73.8921 20.3345Z" fill="black"/>
</g>
</g>
<rect x="70" y="81" width="27" height="22" rx="7" fill="white"/>
<path d="M75 88H87" stroke="black" stroke-width="2.8" stroke-linecap="round" stroke-linejoin="round"/>
<path d="M75 96H87" stroke="black" stroke-width="2.8" stroke-linecap="round" stroke-linejoin="round"/>
<path d="M75 92H81" stroke="black" stroke-width="2.8" stroke-linecap="round" stroke-linejoin="round"/>
<path d="M70 96V88.5C70 84.634 73.134 81.5 77 81.5H90C93.866 81.5 97 84.634 97 88.5V96" stroke="black" stroke-width="2.8" stroke-linecap="round" stroke-linejoin="round"/>
<path d="M88 82.8225C88.2445 82.7942 88.5541 82.7891 88.8945 82.8225H91.8172C92.7299 82.8225 93.6264 83.0635 94.416 83.5211C96.0154 84.4481 97 86.1567 97 88.0053V95.9999H92.2632V86.3365C92.2632 83.7679 90.3122 82.9616 88.8945 82.8225H88Z" fill="#1300EE" fill-opacity="0.05"/>
<defs>
<clipPath id="clip0_19_61">
<rect width="78" height="33" fill="white" transform="translate(13 9)"/>
</clipPath>
</defs>
</svg>
