<svg width="103" height="103" viewBox="0 0 103 103" fill="none" xmlns="http://www.w3.org/2000/svg">
<mask id="path-1-outside-1_27_142" maskUnits="userSpaceOnUse" x="7" y="6" width="84" height="85" fill="black">
<rect fill="white" x="7" y="6" width="84" height="85"/>
<path fill-rule="evenodd" clip-rule="evenodd" d="M80.4447 42.8141C80.8093 41.0924 81 39.3161 81 37.5C81 21.7599 66.6731 9 49 9C31.3269 9 17 21.7599 17 37.5C17 39.3161 17.1907 41.0924 17.5553 42.8141C17.6515 46.5784 15.5688 49.953 14.358 51.915L14.3578 51.9153C14.2271 52.1271 14.1066 52.3224 14 52.5C12.5 55 10.5 58.5 10 62.5C10 66 11.4 69.7 13 72.5C14.3407 74.8461 13.2006 78.5262 12.1094 80.8342L12.0678 80.9221C11.7073 81.6838 11.3413 82.4568 11.2866 83.2966C11.1647 85.1705 11.8117 87.5 15 87.5H25H36.5C42.0228 87.5 46.5 83.0229 46.5 77.5V76.0515C35.5269 74.8103 27 65.497 27 54.192V50.4359V40.2408V37.3105C27 36.2765 27.4943 35.3035 28.3555 34.7312C29.5684 33.9254 31.3388 32.8229 32.5632 32.3813C38.6539 30.185 44.7449 25.1673 46.9094 23.2745C47.3676 22.8739 48.0675 22.9155 48.4666 23.375L52.703 28.2521C52.7384 28.2929 52.7727 28.3306 52.8106 28.369C53.2538 28.8173 56.3478 31.8663 60.2683 33.6791C62.7626 34.8325 65.5432 35.3239 67.6489 35.5295C69.4714 35.7074 71 37.1905 71 39.0217V40.2408V49.3415V54.192C71 65.497 62.4731 74.8103 51.5 76.0515V77.5C51.5 83.0229 55.9772 87.5 61.5 87.5H73H83C86.1883 87.5 86.8353 85.1705 86.7134 83.2966C86.6587 82.4568 86.2928 81.6838 85.9322 80.9222L85.9322 80.9221L85.8906 80.8342C84.7994 78.5262 83.6593 74.8461 85 72.5C86.6 69.7 88 66 88 62.5C87.5 58.5 85.5 55 84 52.5C83.8934 52.3224 83.7728 52.127 83.6421 51.9151L83.642 51.915C82.4312 49.953 80.3485 46.5784 80.4447 42.8141Z"/>
</mask>
<path fill-rule="evenodd" clip-rule="evenodd" d="M80.4447 42.8141C80.8093 41.0924 81 39.3161 81 37.5C81 21.7599 66.6731 9 49 9C31.3269 9 17 21.7599 17 37.5C17 39.3161 17.1907 41.0924 17.5553 42.8141C17.6515 46.5784 15.5688 49.953 14.358 51.915L14.3578 51.9153C14.2271 52.1271 14.1066 52.3224 14 52.5C12.5 55 10.5 58.5 10 62.5C10 66 11.4 69.7 13 72.5C14.3407 74.8461 13.2006 78.5262 12.1094 80.8342L12.0678 80.9221C11.7073 81.6838 11.3413 82.4568 11.2866 83.2966C11.1647 85.1705 11.8117 87.5 15 87.5H25H36.5C42.0228 87.5 46.5 83.0229 46.5 77.5V76.0515C35.5269 74.8103 27 65.497 27 54.192V50.4359V40.2408V37.3105C27 36.2765 27.4943 35.3035 28.3555 34.7312C29.5684 33.9254 31.3388 32.8229 32.5632 32.3813C38.6539 30.185 44.7449 25.1673 46.9094 23.2745C47.3676 22.8739 48.0675 22.9155 48.4666 23.375L52.703 28.2521C52.7384 28.2929 52.7727 28.3306 52.8106 28.369C53.2538 28.8173 56.3478 31.8663 60.2683 33.6791C62.7626 34.8325 65.5432 35.3239 67.6489 35.5295C69.4714 35.7074 71 37.1905 71 39.0217V40.2408V49.3415V54.192C71 65.497 62.4731 74.8103 51.5 76.0515V77.5C51.5 83.0229 55.9772 87.5 61.5 87.5H73H83C86.1883 87.5 86.8353 85.1705 86.7134 83.2966C86.6587 82.4568 86.2928 81.6838 85.9322 80.9222L85.9322 80.9221L85.8906 80.8342C84.7994 78.5262 83.6593 74.8461 85 72.5C86.6 69.7 88 66 88 62.5C87.5 58.5 85.5 55 84 52.5C83.8934 52.3224 83.7728 52.127 83.6421 51.9151L83.642 51.915C82.4312 49.953 80.3485 46.5784 80.4447 42.8141Z" fill="#B8C1EC"/>
<path d="M80.4447 42.8141L77.7055 42.2341L77.6522 42.4856L77.6456 42.7426L80.4447 42.8141ZM17.5553 42.8141L20.3544 42.7426L20.3478 42.4856L20.2946 42.2341L17.5553 42.8141ZM14.358 51.915L16.7271 53.4075L16.734 53.3965L16.7408 53.3855L14.358 51.915ZM14.3578 51.9153L11.9888 50.4228L11.9819 50.4337L11.9751 50.4447L14.3578 51.9153ZM14 52.5L16.401 53.9406L16.401 53.9406L14 52.5ZM10 62.5L7.22162 62.1527L7.2 62.3257V62.5H10ZM13 72.5L15.4311 71.1108H15.4311L13 72.5ZM12.1094 80.8342L14.6404 82.0319L14.6408 82.031L12.1094 80.8342ZM12.0678 80.9221L14.5986 82.1202L14.5988 82.1198L12.0678 80.9221ZM11.2866 83.2966L8.49253 83.1149H8.49253L11.2866 83.2966ZM46.5 76.0515H49.3V73.5504L46.8147 73.2693L46.5 76.0515ZM28.3555 34.7312L26.806 32.3991H26.806L28.3555 34.7312ZM32.5632 32.3813L31.6134 29.7473L31.6133 29.7474L32.5632 32.3813ZM46.9094 23.2745L45.0663 21.1667V21.1667L46.9094 23.2745ZM48.4666 23.375L46.3527 25.2112L46.3527 25.2112L48.4666 23.375ZM52.703 28.2521L54.8169 26.416L54.8168 26.416L52.703 28.2521ZM52.8106 28.369L50.8193 30.3374L50.8193 30.3374L52.8106 28.369ZM60.2683 33.6791L61.4435 31.1377L60.2683 33.6791ZM67.6489 35.5295L67.921 32.7427L67.6489 35.5295ZM51.5 76.0515L51.1853 73.2693L48.7 73.5504V76.0515H51.5ZM86.7134 83.2966L89.5075 83.1149V83.1148L86.7134 83.2966ZM85.9322 80.9222L83.2759 81.8076L83.3292 81.9677L83.4015 82.1203L85.9322 80.9222ZM85.9322 80.9221L88.5885 80.0367L88.5352 79.8767L88.463 79.7243L85.9322 80.9221ZM85.8906 80.8342L83.3592 82.031L83.3597 82.032L85.8906 80.8342ZM85 72.5L82.5689 71.1108L85 72.5ZM88 62.5H90.8V62.3257L90.7784 62.1527L88 62.5ZM84 52.5L81.599 53.9405L81.599 53.9406L84 52.5ZM83.6421 51.9151L81.211 53.3043L81.2345 53.3455L81.2594 53.3858L83.6421 51.9151ZM83.642 51.915L86.0731 50.5258L86.0496 50.4847L86.0247 50.4444L83.642 51.915ZM78.2 37.5C78.2 39.1193 78.03 40.7013 77.7055 42.2341L83.184 43.3942C83.5885 41.4836 83.8 39.5128 83.8 37.5H78.2ZM49 11.8C65.4405 11.8 78.2 23.6024 78.2 37.5H83.8C83.8 19.9174 67.9058 6.2 49 6.2V11.8ZM19.8 37.5C19.8 23.6024 32.5595 11.8 49 11.8V6.2C30.0942 6.2 14.2 19.9174 14.2 37.5H19.8ZM20.2946 42.2341C19.97 40.7013 19.8 39.1193 19.8 37.5H14.2C14.2 39.5128 14.4115 41.4836 14.816 43.3942L20.2946 42.2341ZM16.7408 53.3855C17.8943 51.5164 20.4749 47.4589 20.3544 42.7426L14.7562 42.8857C14.8281 45.6979 13.2434 48.3897 11.9752 50.4444L16.7408 53.3855ZM16.7269 53.4078L16.7271 53.4075L11.9889 50.4225L11.9888 50.4228L16.7269 53.4078ZM16.401 53.9406C16.4967 53.781 16.6074 53.6015 16.7406 53.3858L11.9751 50.4447C11.8468 50.6526 11.7164 50.8638 11.599 51.0594L16.401 53.9406ZM12.7784 62.8473C13.1977 59.4926 14.899 56.444 16.401 53.9406L11.599 51.0594C10.101 53.556 7.80228 57.5074 7.22162 62.1527L12.7784 62.8473ZM15.4311 71.1108C13.9653 68.5457 12.8 65.3341 12.8 62.5H7.2C7.2 66.6659 8.83468 70.8543 10.5689 73.8892L15.4311 71.1108ZM14.6408 82.031C15.2572 80.7272 15.9181 78.9786 16.2275 77.1481C16.5262 75.3807 16.57 73.1039 15.4311 71.1108L10.5689 73.8892C10.7707 74.2422 10.9147 74.9786 10.7058 76.2148C10.5075 77.3878 10.0529 78.6332 9.57808 79.6375L14.6408 82.031ZM14.5988 82.1198L14.6404 82.0319L9.57851 79.6365L9.53692 79.7244L14.5988 82.1198ZM14.0807 83.4784C14.0947 83.2629 14.1941 82.9746 14.5986 82.1202L9.53714 79.724C9.22044 80.3929 8.58778 81.6507 8.49253 83.1149L14.0807 83.4784ZM15 84.7C14.5434 84.7 14.3408 84.6174 14.2864 84.5908C14.2459 84.571 14.2417 84.5628 14.2309 84.5466C14.208 84.5123 14.155 84.4132 14.116 84.2116C14.0769 84.0097 14.0625 83.7583 14.0807 83.4784L8.49253 83.1149C8.41152 84.36 8.5483 86.12 9.57309 87.6554C10.7211 89.3754 12.6313 90.3 15 90.3V84.7ZM25 84.7H15V90.3H25V84.7ZM36.5 84.7H25V90.3H36.5V84.7ZM43.7 77.5C43.7 81.4765 40.4764 84.7 36.5 84.7V90.3C43.5692 90.3 49.3 84.5692 49.3 77.5H43.7ZM43.7 76.0515V77.5H49.3V76.0515H43.7ZM46.8147 73.2693C37.2411 72.1864 29.8 64.0562 29.8 54.192H24.2C24.2 66.9377 33.8126 77.4343 46.1853 78.8338L46.8147 73.2693ZM29.8 54.192V50.4359H24.2V54.192H29.8ZM29.8 50.4359V40.2408H24.2V50.4359H29.8ZM29.8 40.2408V37.3105H24.2V40.2408H29.8ZM29.8 37.3105C29.8 37.1625 29.867 37.0887 29.9051 37.0634L26.806 32.3991C25.1216 33.5182 24.2 35.3904 24.2 37.3105H29.8ZM29.9051 37.0634C31.1534 36.2339 32.6547 35.3248 33.5131 35.0153L31.6133 29.7474C30.0229 30.3209 27.9833 31.6168 26.806 32.3991L29.9051 37.0634ZM33.513 35.0153C40.1405 32.6254 46.5724 27.2888 48.7526 25.3823L45.0663 21.1667C42.9173 23.0458 37.1672 27.7446 31.6134 29.7473L33.513 35.0153ZM48.7526 25.3823C48.0665 25.9823 46.9895 25.9443 46.3527 25.2112L50.5805 21.5389C49.1454 19.8867 46.6688 19.7654 45.0663 21.1667L48.7526 25.3823ZM46.3527 25.2112L50.5891 30.0883L54.8168 26.416L50.5805 21.5389L46.3527 25.2112ZM50.5891 30.0883C50.6521 30.1608 50.7281 30.2451 50.8193 30.3374L54.802 26.4006C54.809 26.4077 54.8146 26.4137 54.8181 26.4175C54.8213 26.421 54.8214 26.4212 54.8169 26.416L50.5891 30.0883ZM50.8193 30.3374C51.3193 30.8432 54.7013 34.1898 59.0931 36.2206L61.4435 31.1377C57.9943 29.5428 55.1883 26.7915 54.8019 26.4006L50.8193 30.3374ZM59.0931 36.2206C61.9904 37.5603 65.1209 38.096 67.3768 38.3162L67.921 32.7427C65.9654 32.5518 63.5348 32.1047 61.4435 31.1377L59.0931 36.2206ZM67.3768 38.3162C67.6212 38.3401 67.851 38.4553 68.0089 38.6162C68.1586 38.7689 68.2 38.9118 68.2 39.0217H73.8C73.8 35.5574 70.9781 33.0412 67.921 32.7427L67.3768 38.3162ZM68.2 39.0217V40.2408H73.8V39.0217H68.2ZM68.2 40.2408V49.3415H73.8V40.2408H68.2ZM68.2 49.3415V54.192H73.8V49.3415H68.2ZM68.2 54.192C68.2 64.0562 60.7589 72.1864 51.1853 73.2693L51.8147 78.8338C64.1874 77.4343 73.8 66.9377 73.8 54.192H68.2ZM54.3 77.5V76.0515H48.7V77.5H54.3ZM61.5 84.7C57.5236 84.7 54.3 81.4765 54.3 77.5H48.7C48.7 84.5692 54.4308 90.3 61.5 90.3V84.7ZM73 84.7H61.5V90.3H73V84.7ZM83 84.7H73V90.3H83V84.7ZM83.9193 83.4784C83.9375 83.7583 83.9231 84.0097 83.884 84.2116C83.845 84.4132 83.792 84.5123 83.7691 84.5466C83.7583 84.5628 83.7541 84.571 83.7136 84.5908C83.6592 84.6174 83.4566 84.7 83 84.7V90.3C85.3687 90.3 87.2789 89.3754 88.4269 87.6554C89.4517 86.12 89.5885 84.36 89.5075 83.1149L83.9193 83.4784ZM83.4015 82.1203C83.8059 82.9746 83.9053 83.2629 83.9193 83.4784L89.5075 83.1148C89.4122 81.6508 88.7796 80.393 88.4629 79.7241L83.4015 82.1203ZM83.2758 81.8075L83.2759 81.8076L88.5885 80.0367L88.5885 80.0367L83.2758 81.8075ZM83.3597 82.032L83.4013 82.1199L88.463 79.7243L88.4214 79.6364L83.3597 82.032ZM82.5689 71.1108C81.43 73.1039 81.4738 75.3807 81.7725 77.1481C82.0819 78.9786 82.7428 80.7272 83.3592 82.031L88.4219 79.6374C87.9471 78.6332 87.4925 77.3878 87.2942 76.2148C87.0853 74.9786 87.2293 74.2422 87.4311 73.8892L82.5689 71.1108ZM85.2 62.5C85.2 65.3341 84.0347 68.5457 82.5689 71.1108L87.4311 73.8892C89.1653 70.8543 90.8 66.6659 90.8 62.5H85.2ZM81.599 53.9406C83.101 56.444 84.8023 59.4926 85.2216 62.8473L90.7784 62.1527C90.1977 57.5074 87.899 53.556 86.401 51.0594L81.599 53.9406ZM81.2594 53.3858C81.3926 53.6015 81.5033 53.781 81.599 53.9405L86.401 51.0595C86.2836 50.8638 86.1531 50.6525 86.0248 50.4445L81.2594 53.3858ZM81.2109 53.3042L81.211 53.3043L86.0732 50.5259L86.0731 50.5258L81.2109 53.3042ZM77.6456 42.7426C77.5251 47.4589 80.1057 51.5164 81.2592 53.3855L86.0247 50.4444C84.7566 48.3897 83.1719 45.6979 83.2438 42.8857L77.6456 42.7426Z" fill="#0A0A0A" mask="url(#path-1-outside-1_27_142)"/>
<path d="M48 70L34 73.5L51.5 89.5L66 73.5L48 70Z" fill="#EEBBC3"/>
<path d="M25 87.0357V96H73V87.0357C73 79.1273 66.8883 72.5634 59 72L49 85.0435L39 72C31.1117 72.5634 25 79.1273 25 87.0357Z" fill="#232946"/>
<path d="M67.7143 96C67.7143 83.5 65.5 80 58 74L59.7143 71L64.2857 72.0638L71.7143 82.1702L74 96H67.7143Z" fill="#232946"/>
<path d="M23.6 96C23.6 96.7732 24.2268 97.4 25 97.4C25.7732 97.4 26.4 96.7732 26.4 96H23.6ZM71.6 94.5C71.6 95.2732 72.2268 95.9 73 95.9C73.7732 95.9 74.4 95.2732 74.4 94.5H71.6ZM49 87L47.8128 87.742C48.0686 88.1513 48.5173 88.4 49 88.4C49.4827 88.4 49.9314 88.1513 50.1872 87.742L49 87ZM59 71L59.4709 69.6816C58.8514 69.4603 58.1614 69.7002 57.8128 70.258L59 71ZM39 71L40.1872 70.258C39.8386 69.7002 39.1486 69.4603 38.5291 69.6816L39 71ZM26.4 96V90.8661H23.6V96H26.4ZM71.6 90.8661V94.5H74.4V90.8661H71.6ZM50.1872 87.742L60.1872 71.742L57.8128 70.258L47.8128 86.258L50.1872 87.742ZM37.8128 71.742L47.8128 87.742L50.1872 86.258L40.1872 70.258L37.8128 71.742ZM74.4 90.8661C74.4 81.3594 68.4237 72.879 59.4709 69.6816L58.5291 72.3184C66.3676 75.1179 71.6 82.5427 71.6 90.8661H74.4ZM26.4 90.8661C26.4 82.5427 31.6324 75.1179 39.4709 72.3184L38.5291 69.6816C29.5763 72.879 23.6 81.3594 23.6 90.8661H26.4Z" fill="#0A0A0A"/>
<rect x="20.6" y="49.6" width="10.8" height="9.8" rx="4.9" fill="#EEBBC3" stroke="#0A0A0A" stroke-width="2.8"/>
<rect x="66.6" y="49.6" width="10.8" height="9.8" rx="4.9" fill="#EEBBC3" stroke="#0A0A0A" stroke-width="2.8"/>
<rect x="26.6" y="18.6" width="43.8" height="56.8" rx="21.9" fill="#EEBBC3" stroke="#0A0A0A" stroke-width="2.8"/>
<path d="M56.0886 62H42.9438C42.4176 62 41.9741 62.4105 42.048 62.9315C42.3463 65.0325 44.1182 68 49.688 68C55.3106 68 56.8592 64.976 56.9906 62.872C57.0218 62.3723 56.5893 62 56.0886 62Z" fill="white"/>
<path d="M56.9906 62.872L58.3879 62.9593V62.9593L56.9906 62.872ZM42.048 62.9315L40.6619 63.1282V63.1282L42.048 62.9315ZM42.9438 63.4H56.0886V60.6H42.9438V63.4ZM55.5933 62.7848C55.5456 63.5495 55.2416 64.4662 54.45 65.1952C53.667 65.9164 52.2473 66.6 49.688 66.6V69.4C52.7513 69.4 54.9172 68.5716 56.3469 67.2548C57.7682 65.9458 58.3042 64.2985 58.3879 62.9593L55.5933 62.7848ZM49.688 66.6C47.1564 66.6 45.6685 65.9302 44.8002 65.1889C43.9234 64.4402 43.5433 63.5037 43.4341 62.7347L40.6619 63.1282C40.851 64.4603 41.506 66.058 42.9821 67.3183C44.4668 68.586 46.6497 69.4 49.688 69.4V66.6ZM56.0886 63.4C55.9973 63.4 55.8858 63.3672 55.7843 63.2725C55.6711 63.167 55.5807 62.9874 55.5933 62.7848L58.3879 62.9593C58.4803 61.4794 57.2111 60.6 56.0886 60.6V63.4ZM42.9438 60.6C41.7698 60.6 40.4413 61.5744 40.6619 63.1282L43.4341 62.7347C43.4639 62.9447 43.3791 63.1418 43.2618 63.2593C43.1577 63.3636 43.0397 63.4 42.9438 63.4V60.6Z" fill="#0A0A0A"/>
<circle cx="39.5" cy="50.5" r="5.9" fill="white" stroke="#0A0A0A" stroke-width="2.8"/>
<circle cx="39.4" cy="50.4" r="1.4" fill="#0A0A0A"/>
<circle cx="58.5" cy="50.5" r="5.9" fill="white" stroke="#0A0A0A" stroke-width="2.8"/>
<circle cx="58.4" cy="50.4" r="1.4" fill="#0A0A0A"/>
<path d="M36 40.2752C36.6667 39.6085 38.7 38.4752 41.5 39.2752" stroke="#0A0A0A" stroke-width="2.8" stroke-linecap="round"/>
<path d="M61.5 40.2752C60.8333 39.6085 58.8 38.4752 56 39.2752" stroke="#0A0A0A" stroke-width="2.8" stroke-linecap="round"/>
<g clip-path="url(#clip0_27_142)">
<mask id="path-18-outside-2_27_142" maskUnits="userSpaceOnUse" x="7" y="6" width="84" height="85" fill="black">
<rect fill="white" x="7" y="6" width="84" height="85"/>
<path fill-rule="evenodd" clip-rule="evenodd" d="M81 37.5C81 39.3161 80.8093 41.0924 80.4447 42.8141C80.3485 46.5784 82.4312 49.953 83.642 51.915L83.6421 51.9151C83.7728 52.127 83.8934 52.3224 84 52.5C85.5 55 87.5 58.5 88 62.5C88 66 86.6 69.7 85 72.5C83.6593 74.8461 84.7994 78.5262 85.8906 80.8342L85.9322 80.9221L85.9322 80.9222C86.2928 81.6838 86.6587 82.4568 86.7134 83.2966C86.8353 85.1705 86.1883 87.5 83 87.5H73H63H61.5H36.5H35H25H15C11.8117 87.5 11.1647 85.1705 11.2866 83.2966C11.3413 82.4568 11.7073 81.6838 12.0678 80.9221L12.1094 80.8342C13.2006 78.5262 14.3407 74.8461 13 72.5C11.4 69.7 10 66 10 62.5C10.5 58.5 12.5 55 14 52.5C14.1066 52.3224 14.2271 52.1271 14.3578 51.9153L14.358 51.915C15.5688 49.953 17.6515 46.5784 17.5553 42.8141C17.1907 41.0924 17 39.3161 17 37.5C17 21.7599 31.3269 9 49 9C66.6731 9 81 21.7599 81 37.5ZM31.0918 32.3813C29.7917 32.824 27.9104 33.9309 26.6256 34.7373C25.7239 35.3034 25.1998 36.3009 25.1998 37.3656V40.2407V50.4359V52.8919C25.1998 65.7602 35.6316 76.1919 48.4998 76.1919C61.368 76.1919 71.7998 65.7602 71.7998 52.8919V49.3414V40.2407V39.0138C71.7998 37.1856 70.2753 35.7046 68.4539 35.5476C66.2015 35.3534 63.1567 34.8678 60.434 33.6791C56.2775 31.8644 52.9982 28.811 52.5342 28.3676C52.495 28.3301 52.4595 28.2933 52.4228 28.2534L47.8735 23.3083C47.4777 22.878 46.8088 22.8412 46.3586 23.2142C44.1326 25.0585 37.612 30.1612 31.0918 32.3813Z"/>
</mask>
<path fill-rule="evenodd" clip-rule="evenodd" d="M81 37.5C81 39.3161 80.8093 41.0924 80.4447 42.8141C80.3485 46.5784 82.4312 49.953 83.642 51.915L83.6421 51.9151C83.7728 52.127 83.8934 52.3224 84 52.5C85.5 55 87.5 58.5 88 62.5C88 66 86.6 69.7 85 72.5C83.6593 74.8461 84.7994 78.5262 85.8906 80.8342L85.9322 80.9221L85.9322 80.9222C86.2928 81.6838 86.6587 82.4568 86.7134 83.2966C86.8353 85.1705 86.1883 87.5 83 87.5H73H63H61.5H36.5H35H25H15C11.8117 87.5 11.1647 85.1705 11.2866 83.2966C11.3413 82.4568 11.7073 81.6838 12.0678 80.9221L12.1094 80.8342C13.2006 78.5262 14.3407 74.8461 13 72.5C11.4 69.7 10 66 10 62.5C10.5 58.5 12.5 55 14 52.5C14.1066 52.3224 14.2271 52.1271 14.3578 51.9153L14.358 51.915C15.5688 49.953 17.6515 46.5784 17.5553 42.8141C17.1907 41.0924 17 39.3161 17 37.5C17 21.7599 31.3269 9 49 9C66.6731 9 81 21.7599 81 37.5ZM31.0918 32.3813C29.7917 32.824 27.9104 33.9309 26.6256 34.7373C25.7239 35.3034 25.1998 36.3009 25.1998 37.3656V40.2407V50.4359V52.8919C25.1998 65.7602 35.6316 76.1919 48.4998 76.1919C61.368 76.1919 71.7998 65.7602 71.7998 52.8919V49.3414V40.2407V39.0138C71.7998 37.1856 70.2753 35.7046 68.4539 35.5476C66.2015 35.3534 63.1567 34.8678 60.434 33.6791C56.2775 31.8644 52.9982 28.811 52.5342 28.3676C52.495 28.3301 52.4595 28.2933 52.4228 28.2534L47.8735 23.3083C47.4777 22.878 46.8088 22.8412 46.3586 23.2142C44.1326 25.0585 37.612 30.1612 31.0918 32.3813Z" fill="#B8C1EC"/>
<path d="M80.4447 42.8141L77.7055 42.2341L77.6522 42.4856L77.6456 42.7426L80.4447 42.8141ZM83.642 51.915L86.0731 50.5258L86.0496 50.4847L86.0247 50.4444L83.642 51.915ZM83.6421 51.9151L81.211 53.3043L81.2345 53.3455L81.2594 53.3858L83.6421 51.9151ZM84 52.5L81.599 53.9405L81.599 53.9406L84 52.5ZM88 62.5H90.8V62.3257L90.7784 62.1527L88 62.5ZM85 72.5L82.5689 71.1108L85 72.5ZM85.8906 80.8342L83.3592 82.031L83.3597 82.032L85.8906 80.8342ZM85.9322 80.9221L88.5885 80.0367L88.5352 79.8767L88.463 79.7243L85.9322 80.9221ZM85.9322 80.9222L83.2759 81.8076L83.3292 81.9677L83.4015 82.1203L85.9322 80.9222ZM86.7134 83.2966L89.5075 83.1149V83.1148L86.7134 83.2966ZM11.2866 83.2966L8.49253 83.1149H8.49253L11.2866 83.2966ZM12.0678 80.9221L14.5986 82.1202L14.5988 82.1198L12.0678 80.9221ZM12.1094 80.8342L14.6404 82.0319L14.6408 82.031L12.1094 80.8342ZM13 72.5L15.4311 71.1108H15.4311L13 72.5ZM10 62.5L7.22162 62.1527L7.2 62.3257V62.5H10ZM14 52.5L16.401 53.9406L16.401 53.9406L14 52.5ZM14.3578 51.9153L11.9888 50.4228L11.9819 50.4337L11.9751 50.4447L14.3578 51.9153ZM14.358 51.915L16.7271 53.4075L16.734 53.3965L16.7408 53.3855L14.358 51.915ZM17.5553 42.8141L20.3544 42.7426L20.3478 42.4856L20.2946 42.2341L17.5553 42.8141ZM26.6256 34.7373L25.1371 32.3658L25.1371 32.3658L26.6256 34.7373ZM31.0918 32.3813L30.1893 29.7307L30.1892 29.7307L31.0918 32.3813ZM68.4539 35.5476L68.2134 38.3372H68.2134L68.4539 35.5476ZM60.434 33.6791L61.5543 31.113H61.5543L60.434 33.6791ZM52.5342 28.3676L50.5998 30.392L50.5998 30.392L52.5342 28.3676ZM52.4228 28.2534L50.3621 30.1491L50.3621 30.1491L52.4228 28.2534ZM47.8735 23.3083L45.8129 25.204L45.8129 25.204L47.8735 23.3083ZM46.3586 23.2142L44.5722 21.0581L44.5722 21.0581L46.3586 23.2142ZM83.184 43.3942C83.5885 41.4836 83.8 39.5128 83.8 37.5H78.2C78.2 39.1193 78.03 40.7013 77.7055 42.2341L83.184 43.3942ZM86.0247 50.4444C84.7566 48.3897 83.1719 45.6979 83.2438 42.8857L77.6456 42.7426C77.5251 47.4589 80.1057 51.5164 81.2592 53.3855L86.0247 50.4444ZM86.0732 50.5259L86.0731 50.5258L81.2109 53.3042L81.211 53.3043L86.0732 50.5259ZM86.401 51.0595C86.2836 50.8638 86.1531 50.6525 86.0248 50.4445L81.2594 53.3858C81.3926 53.6015 81.5033 53.781 81.599 53.9405L86.401 51.0595ZM90.7784 62.1527C90.1977 57.5074 87.899 53.556 86.401 51.0594L81.599 53.9406C83.101 56.444 84.8023 59.4926 85.2216 62.8473L90.7784 62.1527ZM87.4311 73.8892C89.1653 70.8543 90.8 66.6659 90.8 62.5H85.2C85.2 65.3341 84.0347 68.5457 82.5689 71.1108L87.4311 73.8892ZM88.4219 79.6374C87.9471 78.6332 87.4925 77.3878 87.2942 76.2148C87.0853 74.9786 87.2293 74.2422 87.4311 73.8892L82.5689 71.1108C81.43 73.1039 81.4738 75.3807 81.7725 77.1481C82.0819 78.9786 82.7428 80.7272 83.3592 82.031L88.4219 79.6374ZM88.463 79.7243L88.4214 79.6364L83.3597 82.032L83.4013 82.1199L88.463 79.7243ZM88.5885 80.0367L88.5885 80.0367L83.2758 81.8075L83.2759 81.8076L88.5885 80.0367ZM89.5075 83.1148C89.4122 81.6508 88.7796 80.393 88.4629 79.7241L83.4015 82.1203C83.8059 82.9746 83.9053 83.2629 83.9193 83.4784L89.5075 83.1148ZM83 90.3C85.3687 90.3 87.2789 89.3754 88.4269 87.6554C89.4517 86.12 89.5885 84.36 89.5075 83.1149L83.9193 83.4784C83.9375 83.7583 83.9231 84.0097 83.884 84.2116C83.845 84.4132 83.792 84.5123 83.7691 84.5466C83.7583 84.5628 83.7541 84.571 83.7136 84.5908C83.6592 84.6174 83.4566 84.7 83 84.7V90.3ZM73 90.3H83V84.7H73V90.3ZM63 90.3H73V84.7H63V90.3ZM61.5 90.3H63V84.7H61.5V90.3ZM36.5 90.3H61.5V84.7H36.5V90.3ZM35 90.3H36.5V84.7H35V90.3ZM25 90.3H35V84.7H25V90.3ZM15 90.3H25V84.7H15V90.3ZM8.49253 83.1149C8.41152 84.36 8.5483 86.12 9.57309 87.6554C10.7211 89.3754 12.6313 90.3 15 90.3V84.7C14.5434 84.7 14.3408 84.6174 14.2864 84.5908C14.2459 84.571 14.2417 84.5628 14.2309 84.5466C14.208 84.5123 14.155 84.4132 14.116 84.2116C14.0769 84.0097 14.0625 83.7583 14.0807 83.4784L8.49253 83.1149ZM9.53714 79.724C9.22044 80.3929 8.58778 81.6507 8.49253 83.1149L14.0807 83.4784C14.0947 83.2629 14.1941 82.9746 14.5986 82.1202L9.53714 79.724ZM9.57851 79.6365L9.53692 79.7244L14.5988 82.1198L14.6404 82.0319L9.57851 79.6365ZM10.5689 73.8892C10.7707 74.2422 10.9147 74.9786 10.7058 76.2148C10.5075 77.3878 10.0529 78.6332 9.57808 79.6375L14.6408 82.031C15.2572 80.7272 15.9181 78.9786 16.2275 77.1481C16.5262 75.3807 16.57 73.1039 15.4311 71.1108L10.5689 73.8892ZM7.2 62.5C7.2 66.6659 8.83468 70.8543 10.5689 73.8892L15.4311 71.1108C13.9653 68.5457 12.8 65.3341 12.8 62.5H7.2ZM11.599 51.0594C10.101 53.556 7.80228 57.5074 7.22162 62.1527L12.7784 62.8473C13.1977 59.4926 14.899 56.444 16.401 53.9406L11.599 51.0594ZM11.9751 50.4447C11.8468 50.6526 11.7164 50.8638 11.599 51.0594L16.401 53.9406C16.4967 53.781 16.6074 53.6015 16.7406 53.3858L11.9751 50.4447ZM11.9889 50.4225L11.9888 50.4228L16.7269 53.4078L16.7271 53.4075L11.9889 50.4225ZM14.7562 42.8857C14.8281 45.6979 13.2434 48.3897 11.9752 50.4444L16.7408 53.3855C17.8943 51.5164 20.4749 47.4589 20.3544 42.7426L14.7562 42.8857ZM14.2 37.5C14.2 39.5128 14.4115 41.4836 14.816 43.3942L20.2946 42.2341C19.97 40.7013 19.8 39.1193 19.8 37.5H14.2ZM49 6.2C30.0942 6.2 14.2 19.9174 14.2 37.5H19.8C19.8 23.6024 32.5595 11.8 49 11.8V6.2ZM83.8 37.5C83.8 19.9174 67.9058 6.2 49 6.2V11.8C65.4405 11.8 78.2 23.6024 78.2 37.5H83.8ZM28.1142 37.1089C29.4318 36.2819 31.0494 35.3536 31.9943 35.0318L30.1892 29.7307C28.534 30.2944 26.389 31.58 25.1371 32.3658L28.1142 37.1089ZM27.9998 37.3656C27.9998 37.2138 28.0704 37.1364 28.1142 37.1089L25.1371 32.3658C23.3773 33.4703 22.3998 35.388 22.3998 37.3656H27.9998ZM27.9998 40.2407V37.3656H22.3998V40.2407H27.9998ZM27.9998 50.4359V40.2407H22.3998V50.4359H27.9998ZM27.9998 52.8919V50.4359H22.3998V52.8919H27.9998ZM48.4998 73.3919C37.178 73.3919 27.9998 64.2138 27.9998 52.8919H22.3998C22.3998 67.3066 34.0852 78.9919 48.4998 78.9919V73.3919ZM68.9998 52.8919C68.9998 64.2138 59.8216 73.3919 48.4998 73.3919V78.9919C62.9144 78.9919 74.5998 67.3066 74.5998 52.8919H68.9998ZM68.9998 49.3414V52.8919H74.5998V49.3414H68.9998ZM68.9998 40.2407V49.3414H74.5998V40.2407H68.9998ZM68.9998 39.0138V40.2407H74.5998V39.0138H68.9998ZM68.2134 38.3372C68.4449 38.3572 68.6633 38.4647 68.8146 38.6184C68.9582 38.7643 68.9998 38.9037 68.9998 39.0138H74.5998C74.5998 35.5576 71.7827 33.0242 68.6944 32.7579L68.2134 38.3372ZM59.3136 36.2452C62.4352 37.6081 65.8228 38.1312 68.2134 38.3372L68.6944 32.7579C66.5801 32.5757 63.8782 32.1276 61.5543 31.113L59.3136 36.2452ZM50.5998 30.392C51.1263 30.8951 54.6942 34.2284 59.3136 36.2452L61.5543 31.113C57.8608 29.5005 54.87 26.7268 54.4686 26.3432L50.5998 30.392ZM50.3621 30.1491C50.4275 30.2202 50.5059 30.3023 50.5998 30.392L54.4686 26.3432C54.4757 26.35 54.4813 26.3557 54.4848 26.3593C54.4881 26.3626 54.4881 26.3628 54.4835 26.3577L50.3621 30.1491ZM45.8129 25.204L50.3621 30.1491L54.4835 26.3577L49.9342 21.4126L45.8129 25.204ZM48.145 25.3703C47.4787 25.9224 46.4527 25.8995 45.8129 25.204L49.9342 21.4126C48.5026 19.8564 46.1389 19.76 44.5722 21.0581L48.145 25.3703ZM31.9942 35.0318C39.0398 32.633 45.8995 27.2308 48.145 25.3703L44.5722 21.0581C42.3657 22.8862 36.1842 27.6895 30.1893 29.7307L31.9942 35.0318Z" fill="#0A0A0A" mask="url(#path-18-outside-2_27_142)"/>
</g>
<mask id="path-20-outside-3_27_142" maskUnits="userSpaceOnUse" x="90" y="29" width="13" height="16" fill="black">
<rect fill="white" x="90" y="29" width="13" height="16"/>
<path d="M96.4565 32.1315C96.4704 32.0896 96.5296 32.0896 96.5435 32.1315L96.74 32.7251C97.3129 34.456 98.4431 35.9484 99.954 36.9689V36.9689C99.976 36.9838 99.976 37.0162 99.954 37.0311V37.0311C98.4431 38.0516 97.3129 39.544 96.74 41.2749L96.5435 41.8685C96.5296 41.9104 96.4704 41.9104 96.4565 41.8685L96.26 41.2749C95.6871 39.544 94.5569 38.0516 93.046 37.0311V37.0311C93.024 37.0162 93.024 36.9838 93.046 36.9689V36.9689C94.5569 35.9484 95.6871 34.456 96.26 32.7251L96.4565 32.1315Z"/>
</mask>
<path d="M96.4565 32.1315C96.4704 32.0896 96.5296 32.0896 96.5435 32.1315L96.74 32.7251C97.3129 34.456 98.4431 35.9484 99.954 36.9689V36.9689C99.976 36.9838 99.976 37.0162 99.954 37.0311V37.0311C98.4431 38.0516 97.3129 39.544 96.74 41.2749L96.5435 41.8685C96.5296 41.9104 96.4704 41.9104 96.4565 41.8685L96.26 41.2749C95.6871 39.544 94.5569 38.0516 93.046 37.0311V37.0311C93.024 37.0162 93.024 36.9838 93.046 36.9689V36.9689C94.5569 35.9484 95.6871 34.456 96.26 32.7251L96.4565 32.1315Z" fill="#D8FFE8"/>
<path d="M96.26 41.2749L93.6018 42.1547L96.26 41.2749ZM96.5435 41.8685L93.8853 40.9888L96.5435 41.8685ZM96.4565 41.8685L99.1147 40.9888L96.4565 41.8685ZM96.5435 32.1315L99.2017 31.2517L96.5435 32.1315ZM96.4565 32.1315L93.7983 31.2517L96.4565 32.1315ZM93.8853 33.0112L94.0818 33.6049L99.3982 31.8453L99.2017 31.2517L93.8853 33.0112ZM94.0818 40.3951L93.8853 40.9888L99.2017 42.7483L99.3982 42.1547L94.0818 40.3951ZM99.1147 40.9888L98.9182 40.3951L93.6018 42.1547L93.7983 42.7483L99.1147 40.9888ZM98.9182 33.6049L99.1147 33.0112L93.7983 31.2517L93.6018 31.8453L98.9182 33.6049ZM94.6132 39.2892C96.637 37.9223 98.1509 35.9234 98.9182 33.6049L93.6018 31.8453C93.2234 32.9887 92.4768 33.9745 91.4788 34.6486L94.6132 39.2892ZM94.6132 34.7108C96.2349 35.8061 96.2349 38.1939 94.6132 39.2892L91.4788 34.6486C89.8131 35.7737 89.8131 38.2263 91.4788 39.3514L94.6132 34.7108ZM98.9182 40.3951C98.1509 38.0766 96.637 36.0777 94.6132 34.7108L91.4788 39.3514C92.4768 40.0255 93.2234 41.0113 93.6018 42.1547L98.9182 40.3951ZM93.8853 40.9888C94.7188 38.4704 98.2812 38.4704 99.1147 40.9888L93.7983 42.7483C94.6595 45.3505 98.3405 45.3505 99.2017 42.7483L93.8853 40.9888ZM98.3868 34.7108C96.363 36.0777 94.8491 38.0766 94.0818 40.3951L99.3982 42.1547C99.7766 41.0113 100.523 40.0255 101.521 39.3514L98.3868 34.7108ZM98.3868 39.2892C96.7651 38.1939 96.7651 35.8061 98.3868 34.7108L101.521 39.3514C103.187 38.2263 103.187 35.7737 101.521 34.6486L98.3868 39.2892ZM94.0818 33.6049C94.8491 35.9234 96.363 37.9223 98.3868 39.2892L101.521 34.6486C100.523 33.9745 99.7766 32.9887 99.3982 31.8453L94.0818 33.6049ZM99.2017 31.2517C98.3405 28.6495 94.6595 28.6495 93.7983 31.2517L99.1147 33.0112C98.2812 35.5296 94.7188 35.5296 93.8853 33.0112L99.2017 31.2517Z" fill="#0A0A0A" mask="url(#path-20-outside-3_27_142)"/>
<mask id="mask0_27_142" style="mask-type:alpha" maskUnits="userSpaceOnUse" x="10" y="9" width="78" height="79">
<path fill-rule="evenodd" clip-rule="evenodd" d="M80.4447 42.8141C80.8093 41.0924 81 39.3161 81 37.5C81 21.7599 66.6731 9 49 9C31.3269 9 17 21.7599 17 37.5C17 39.3161 17.1907 41.0924 17.5553 42.8141C17.6515 46.5784 15.5688 49.953 14.358 51.915L14.3578 51.9153C14.2271 52.1271 14.1066 52.3224 14 52.5C12.5 55 10.5 58.5 10 62.5C10 66 11.4 69.7 13 72.5C14.3407 74.8461 13.2006 78.5262 12.1094 80.8342L12.0678 80.9221C11.7073 81.6838 11.3413 82.4568 11.2866 83.2966C11.1647 85.1705 11.8117 87.5 15 87.5H25H36.5C42.0228 87.5 46.5 83.0229 46.5 77.5V76.0515C35.5269 74.8103 27 65.497 27 54.192V50.4359V40.2408V37.3105C27 36.2765 27.4943 35.3035 28.3555 34.7312C29.5684 33.9254 31.3388 32.8229 32.5632 32.3813C38.6539 30.185 44.7449 25.1673 46.9094 23.2745C47.3676 22.8739 48.0675 22.9155 48.4666 23.375L52.703 28.2521C52.7384 28.2929 52.7727 28.3306 52.8106 28.369C53.2538 28.8173 56.3478 31.8663 60.2683 33.6791C62.7626 34.8325 65.5432 35.3239 67.6489 35.5295C69.4714 35.7074 71 37.1905 71 39.0217V40.2408V49.3415V54.192C71 65.497 62.4731 74.8103 51.5 76.0515V77.5C51.5 83.0229 55.9772 87.5 61.5 87.5H73H83C86.1883 87.5 86.8353 85.1705 86.7134 83.2966C86.6587 82.4568 86.2928 81.6838 85.9322 80.9222L85.9322 80.9221L85.8906 80.8342C84.7994 78.5262 83.6593 74.8461 85 72.5C86.6 69.7 88 66 88 62.5C87.5 58.5 85.5 55 84 52.5C83.8934 52.3224 83.7728 52.127 83.6421 51.9151L83.642 51.915C82.4312 49.953 80.3485 46.5784 80.4447 42.8141Z" fill="#8667FF"/>
</mask>
<g mask="url(#mask0_27_142)">
<g style="mix-blend-mode:soft-light">
<path d="M70.8921 20.3345C66.413 13.7145 60.8464 10.8629 58 10.2299C70.7729 5.00326 85.0821 13.046 87.2571 26.6744L90.3882 46.2932C90.795 48.8417 90.9332 51.4258 90.8006 54.0031L89.5395 78.5139C89.2372 84.3904 84.3843 89 78.5 89C79.6667 88.1475 82 85.8287 82 83.3736C82 80.3046 80 77.2356 80 74.1667C80 71.0977 83.5 68.0287 83 62.4023C82.5 56.7759 79.5 55.7529 77.5 50.1264C76.5869 47.5576 75.956 42.6453 75.5517 37.9187C75.0267 31.7814 74.3438 25.4361 70.8921 20.3345Z" fill="#0A0A0A"/>
</g>
</g>
<path d="M81.0162 88.1739L77.4131 95.5008C77.2449 95.8429 76.8969 96.0596 76.5158 96.0596L67 96.0595L72.4073 84.6094C72.6325 84.1325 73.1894 83.9125 73.6798 84.1067L80.4871 86.8029C81.0298 87.0178 81.2738 87.65 81.0162 88.1739Z" fill="#232946"/>
<path d="M78.1233 95.9071L82.0095 87.9088C82.2563 87.4008 82.0338 86.7894 81.5183 86.5589L73.9261 83.1637C73.4369 82.9449 72.8622 83.1507 72.623 83.6303L66.5 95.9071" stroke="#0A0A0A" stroke-width="2.8" stroke-linecap="round"/>
<path d="M81.4412 84.1459L80.2699 86.5321L74.4048 83.9625L75.5325 80.9873C75.6068 80.7912 75.6169 80.5765 75.5654 80.3732C74.6219 76.6524 74.8071 73.6357 75.0252 72.57C75.2924 71.6357 76.0202 69.7152 76.7929 69.5081C77.5657 69.3011 78.0178 70.2152 78.1473 70.6982L78.6435 72.5499C78.7066 72.7856 79.0098 72.8513 79.1649 72.6629L84.1323 66.6287C84.2177 66.525 84.3235 66.4395 84.4423 66.3768C85.4886 65.8253 85.9211 65.5646 86.7291 66.0208C87.638 66.534 87.6452 67.6811 87.4773 68.5966C87.462 68.6803 87.4339 68.761 87.3963 68.8375L85.4844 72.7256C85.2673 73.1669 85.4117 73.6934 85.7686 74.0318C87.633 75.7996 87.4917 78.1284 87.1434 79.158C85.9641 81.7098 83.4951 83.0983 82.0739 83.6023C81.8019 83.6988 81.5684 83.8868 81.4412 84.1459Z" fill="#FFE6EE"/>
<path d="M80.2699 86.5321L81.5267 87.149C81.1964 87.8218 80.3947 88.1152 79.7081 87.8144L80.2699 86.5321ZM81.4412 84.1459L80.1845 83.5289L80.1845 83.5289L81.4412 84.1459ZM82.0739 83.6023L82.5418 84.9218L82.0739 83.6023ZM87.1434 79.158L88.4696 79.6067C88.4536 79.6538 88.4352 79.7002 88.4143 79.7454L87.1434 79.158ZM85.7686 74.0318L86.7319 73.0159L86.7319 73.0159L85.7686 74.0318ZM85.4844 72.7256L86.7407 73.3434L86.7407 73.3434L85.4844 72.7256ZM87.3963 68.8375L88.6526 69.4552L88.6526 69.4552L87.3963 68.8375ZM84.1323 66.6287L85.2132 67.5185L85.2132 67.5185L84.1323 66.6287ZM79.1649 72.6629L80.2457 73.5527L80.2457 73.5527L79.1649 72.6629ZM78.1473 70.6982L79.4996 70.3356L79.4996 70.3358L78.1473 70.6982ZM75.0252 72.57L73.6536 72.2893C73.6608 72.2542 73.6693 72.2194 73.6792 72.185L75.0252 72.57ZM75.5654 80.3732L74.2083 80.7173L74.2083 80.7173L75.5654 80.3732ZM75.5325 80.9873L74.2234 80.4911L74.2234 80.4911L75.5325 80.9873ZM74.4048 83.9625L73.843 85.2449C73.16 84.9456 72.8314 84.1636 73.0957 83.4663L74.4048 83.9625ZM87.4773 68.5966L88.8544 68.8491L88.8544 68.8491L87.4773 68.5966ZM86.7291 66.0208L86.0407 67.2399L86.7291 66.0208ZM84.4423 66.3768L85.0951 67.6153L84.4423 66.3768ZM79.0132 85.9151L80.1845 83.5289L82.698 84.7628L81.5267 87.149L79.0132 85.9151ZM81.6059 82.2828C82.8407 81.8449 84.9134 80.6461 85.8726 78.5707L88.4143 79.7454C87.0147 82.7735 84.1494 84.3516 82.5418 84.9218L81.6059 82.2828ZM85.8173 78.7094C86.05 78.0213 86.1546 76.3271 84.8053 75.0477L86.7319 73.0159C89.1114 75.2721 88.9334 78.2356 88.4696 79.6067L85.8173 78.7094ZM84.228 72.1078L86.14 68.2197L88.6526 69.4552L86.7407 73.3434L84.228 72.1078ZM85.2132 67.5185L80.2457 73.5527L78.084 71.7731L83.0514 65.739L85.2132 67.5185ZM77.2912 72.9122L76.795 71.0605L79.4996 70.3358L79.9958 72.1875L77.2912 72.9122ZM76.7951 71.0607C76.785 71.0233 76.7629 70.9583 76.7292 70.8885C76.6947 70.8171 76.6639 70.7736 76.6491 70.7564C76.6325 70.737 76.6677 70.7866 76.7714 70.8301C76.8265 70.8532 76.8939 70.8712 76.9689 70.8765C77.0443 70.8819 77.1085 70.873 77.1553 70.8604L76.4306 68.1559C77.5272 67.862 78.3468 68.4354 78.7736 68.9324C79.1768 69.4021 79.3995 69.9624 79.4996 70.3356L76.7951 71.0607ZM77.1553 70.8604C77.3944 70.7964 77.4377 70.6736 77.3166 70.8232C77.2236 70.9381 77.1038 71.1288 76.9713 71.3933C76.7083 71.9182 76.4882 72.5461 76.3712 72.9551L73.6792 72.185C73.8295 71.6595 74.1068 70.86 74.4677 70.1394C74.6472 69.7811 74.8709 69.3944 75.14 69.0618C75.381 68.764 75.8051 68.3235 76.4306 68.1559L77.1553 70.8604ZM76.3967 72.8507C76.2246 73.6921 76.0262 76.4947 76.9224 80.029L74.2083 80.7173C73.2175 76.8101 73.3896 73.5792 73.6536 72.2893L76.3967 72.8507ZM76.8416 81.4835L75.7139 84.4587L73.0957 83.4663L74.2234 80.4911L76.8416 81.4835ZM74.9666 82.6802L80.8317 85.2497L79.7081 87.8144L73.843 85.2449L74.9666 82.6802ZM86.1003 68.344C86.1693 67.9677 86.1788 67.6523 86.135 67.4363C86.0984 67.2561 86.0526 67.2466 86.0407 67.2399L87.4174 64.8017C88.3145 65.3083 88.7267 66.1289 88.879 66.8794C89.0241 67.594 88.9533 68.3099 88.8544 68.8491L86.1003 68.344ZM86.0407 67.2399C85.933 67.1791 85.903 67.1793 85.9269 67.1837C85.9624 67.1902 85.9916 67.1847 85.9848 67.1862C85.9595 67.192 85.888 67.2132 85.7267 67.2896C85.5612 67.368 85.3744 67.4681 85.0951 67.6153L83.7895 65.1384C84.225 64.9088 84.7984 64.5842 85.3654 64.4556C86.1095 64.2868 86.774 64.4384 87.4174 64.8017L86.0407 67.2399ZM76.9224 80.029C77.042 80.5007 77.0213 81.0093 76.8416 81.4835L74.2234 80.4911C74.1923 80.573 74.1918 80.6522 74.2083 80.7173L76.9224 80.029ZM83.0514 65.739C83.2572 65.489 83.5094 65.286 83.7895 65.1384L85.0951 67.6153C85.1376 67.593 85.1781 67.5611 85.2132 67.5185L83.0514 65.739ZM86.14 68.2197C86.1274 68.2452 86.1108 68.2869 86.1003 68.344L88.8544 68.8491C88.8132 69.0737 88.7404 69.2769 88.6526 69.4552L86.14 68.2197ZM84.8053 75.0477C84.0945 74.3738 83.6891 73.2039 84.228 72.1078L86.7407 73.3434C86.7888 73.2455 86.7871 73.1527 86.7745 73.0985C86.7633 73.0508 86.7442 73.0276 86.7319 73.0159L84.8053 75.0477ZM80.2457 73.5527C79.3669 74.6202 77.6491 74.2478 77.2912 72.9122L79.9958 72.1875C79.7642 71.3233 78.6527 71.0823 78.084 71.7731L80.2457 73.5527ZM80.1845 83.5289C80.4953 82.8957 81.0408 82.4832 81.6059 82.2828L82.5418 84.9218C82.5629 84.9143 82.6415 84.8778 82.698 84.7628L80.1845 83.5289Z" fill="#0A0A0A"/>
<mask id="path-28-outside-4_27_142" maskUnits="userSpaceOnUse" x="81" y="43" width="17" height="20" fill="black">
<rect fill="white" x="81" y="43" width="17" height="20"/>
<path d="M89.4531 46.1262C89.4693 46.0827 89.5307 46.0827 89.5469 46.1262L89.9248 47.1436C90.7929 49.4802 92.4288 51.4528 94.5646 52.738L94.9288 52.9572C94.9611 52.9766 94.9611 53.0234 94.9288 53.0428L94.5646 53.262C92.4288 54.5472 90.7929 56.5198 89.9248 58.8564L89.5469 59.8738C89.5307 59.9173 89.4693 59.9173 89.4531 59.8738L89.0752 58.8564C88.2071 56.5198 86.5712 54.5472 84.4354 53.262L84.0712 53.0428C84.0389 53.0234 84.0389 52.9766 84.0712 52.9572L84.4354 52.738C86.5712 51.4528 88.2071 49.4802 89.0752 47.1436L89.4531 46.1262Z"/>
</mask>
<path d="M89.4531 46.1262C89.4693 46.0827 89.5307 46.0827 89.5469 46.1262L89.9248 47.1436C90.7929 49.4802 92.4288 51.4528 94.5646 52.738L94.9288 52.9572C94.9611 52.9766 94.9611 53.0234 94.9288 53.0428L94.5646 53.262C92.4288 54.5472 90.7929 56.5198 89.9248 58.8564L89.5469 59.8738C89.5307 59.9173 89.4693 59.9173 89.4531 59.8738L89.0752 58.8564C88.2071 56.5198 86.5712 54.5472 84.4354 53.262L84.0712 53.0428C84.0389 53.0234 84.0389 52.9766 84.0712 52.9572L84.4354 52.738C86.5712 51.4528 88.2071 49.4802 89.0752 47.1436L89.4531 46.1262Z" fill="#D8FFE8"/>
<path d="M84.4354 52.738L82.9917 50.3389L84.4354 52.738ZM89.0752 47.1436L91.6999 48.1186L89.0752 47.1436ZM84.0712 53.0428L85.5149 50.6437L84.0712 53.0428ZM84.0712 52.9572L82.6275 50.558L84.0712 52.9572ZM84.4354 53.262L82.9917 55.6611L84.4354 53.262ZM89.5469 59.8738L86.9221 58.8988L89.5469 59.8738ZM89.4531 59.8738L92.0779 58.8988L89.4531 59.8738ZM94.9288 52.9572L96.3725 50.558L94.9288 52.9572ZM94.9288 53.0428L93.4851 50.6437L94.9288 53.0428ZM94.5646 52.738L93.1209 55.1371L94.5646 52.738ZM89.5469 46.1262L86.9221 47.1012L89.5469 46.1262ZM89.4531 46.1262L92.0779 47.1012L89.4531 46.1262ZM86.9221 47.1012L87.3001 48.1186L92.5496 46.1685L92.1716 45.1511L86.9221 47.1012ZM93.1209 55.1371L93.4851 55.3563L96.3725 50.558L96.0083 50.3389L93.1209 55.1371ZM93.4851 50.6437L93.121 50.8629L96.0083 55.6611L96.3725 55.442L93.4851 50.6437ZM87.3001 57.8814L86.9221 58.8988L92.1716 60.8489L92.5496 59.8315L87.3001 57.8814ZM92.0779 58.8988L91.6999 57.8814L86.4504 59.8315L86.8284 60.8489L92.0779 58.8988ZM85.879 50.8629L85.5149 50.6437L82.6275 55.442L82.9917 55.6611L85.879 50.8629ZM85.5149 55.3563L85.8791 55.1371L82.9917 50.3389L82.6275 50.558L85.5149 55.3563ZM91.6999 48.1186L92.0779 47.1012L86.8284 45.1511L86.4504 46.1685L91.6999 48.1186ZM85.8791 55.1371C88.5585 53.5247 90.6109 51.0501 91.6999 48.1186L86.4504 46.1685C85.8033 47.9104 84.5838 49.3808 82.9917 50.3389L85.8791 55.1371ZM85.5149 50.6437C87.291 51.7125 87.291 54.2875 85.5149 55.3563L82.6275 50.558C80.7868 51.6657 80.7868 54.3343 82.6275 55.442L85.5149 50.6437ZM91.6999 57.8814C90.6109 54.9499 88.5585 52.4753 85.879 50.8629L82.9917 55.6611C84.5838 56.6192 85.8033 58.0896 86.4504 59.8315L91.6999 57.8814ZM86.9221 58.8988C87.8099 56.509 91.1901 56.509 92.0779 58.8988L86.8284 60.8489C87.7485 63.3256 91.2515 63.3256 92.1716 60.8489L86.9221 58.8988ZM93.121 50.8629C90.4415 52.4753 88.3891 54.9499 87.3001 57.8814L92.5496 59.8315C93.1967 58.0896 94.4162 56.6192 96.0083 55.6611L93.121 50.8629ZM93.4851 55.3563C91.709 54.2875 91.709 51.7125 93.4851 50.6437L96.3725 55.442C98.2132 54.3343 98.2132 51.6657 96.3725 50.558L93.4851 55.3563ZM87.3001 48.1186C88.3891 51.0501 90.4415 53.5247 93.1209 55.1371L96.0083 50.3389C94.4162 49.3808 93.1967 47.9104 92.5496 46.1685L87.3001 48.1186ZM92.1716 45.1511C91.2515 42.6744 87.7485 42.6745 86.8284 45.1511L92.0779 47.1012C91.1901 49.491 87.8099 49.4911 86.9221 47.1012L92.1716 45.1511Z" fill="#0A0A0A" mask="url(#path-28-outside-4_27_142)"/>
<defs>
<clipPath id="clip0_27_142">
<rect width="78" height="33" fill="white" transform="translate(10 9)"/>
</clipPath>
</defs>
</svg>
