<svg width="104" height="103" viewBox="0 0 104 103" fill="none" xmlns="http://www.w3.org/2000/svg">
<mask id="path-1-outside-1_27_60" maskUnits="userSpaceOnUse" x="10.6704" y="6" width="84" height="85" fill="black">
<rect fill="white" x="10.6704" y="6" width="84" height="85"/>
<path fill-rule="evenodd" clip-rule="evenodd" d="M84.1151 42.8141C84.4797 41.0924 84.6704 39.3161 84.6704 37.5C84.6704 21.7599 70.3435 9 52.6704 9C34.9973 9 20.6704 21.7599 20.6704 37.5C20.6704 39.3161 20.8611 41.0924 21.2257 42.8141C21.3219 46.5784 19.2393 49.953 18.0284 51.915L18.0282 51.9153C17.8975 52.1271 17.777 52.3224 17.6704 52.5C16.1704 55 14.1704 58.5 13.6704 62.5C13.6704 66 15.0704 69.7 16.6704 72.5C18.0111 74.8461 16.871 78.5262 15.7799 80.8342L15.7383 80.9221C15.3777 81.6838 15.0117 82.4568 14.957 83.2966C14.8351 85.1705 15.4821 87.5 18.6704 87.5H28.6704H40.1704C45.6933 87.5 50.1704 83.0229 50.1704 77.5V76.0515C39.1973 74.8103 30.6704 65.497 30.6704 54.192V50.4359V40.2408V37.3105C30.6704 36.2765 31.1647 35.3035 32.0259 34.7312C33.2388 33.9254 35.0092 32.8229 36.2336 32.3813C42.3243 30.185 48.4153 25.1673 50.5799 23.2745C51.0381 22.8739 51.7379 22.9155 52.137 23.375L56.3734 28.2521C56.4088 28.2929 56.4431 28.3306 56.481 28.369C56.9242 28.8173 60.0182 31.8663 63.9387 33.6791C66.433 34.8325 69.2136 35.3239 71.3193 35.5295C73.1418 35.7074 74.6704 37.1905 74.6704 39.0217V40.2408V49.3415V54.192C74.6704 65.497 66.1435 74.8103 55.1704 76.0515V77.5C55.1704 83.0229 59.6476 87.5 65.1704 87.5H76.6704H86.6704C89.8696 87.5 89.8704 85.1545 89.4867 83.2774C89.3609 82.6622 89.1258 82.0784 88.8907 81.4946L88.8907 81.4945L88.8906 81.4943C88.7985 81.2656 88.7064 81.0369 88.6209 80.8063C87.7642 78.4966 87.3352 74.8367 88.6704 72.5C90.2704 69.7 91.6704 66 91.6704 62.5C91.1704 58.5 89.1704 55 87.6704 52.5C87.5638 52.3224 87.4433 52.127 87.3125 51.9151L87.3124 51.915C86.1016 49.953 84.0189 46.5784 84.1151 42.8141Z"/>
</mask>
<path fill-rule="evenodd" clip-rule="evenodd" d="M84.1151 42.8141C84.4797 41.0924 84.6704 39.3161 84.6704 37.5C84.6704 21.7599 70.3435 9 52.6704 9C34.9973 9 20.6704 21.7599 20.6704 37.5C20.6704 39.3161 20.8611 41.0924 21.2257 42.8141C21.3219 46.5784 19.2393 49.953 18.0284 51.915L18.0282 51.9153C17.8975 52.1271 17.777 52.3224 17.6704 52.5C16.1704 55 14.1704 58.5 13.6704 62.5C13.6704 66 15.0704 69.7 16.6704 72.5C18.0111 74.8461 16.871 78.5262 15.7799 80.8342L15.7383 80.9221C15.3777 81.6838 15.0117 82.4568 14.957 83.2966C14.8351 85.1705 15.4821 87.5 18.6704 87.5H28.6704H40.1704C45.6933 87.5 50.1704 83.0229 50.1704 77.5V76.0515C39.1973 74.8103 30.6704 65.497 30.6704 54.192V50.4359V40.2408V37.3105C30.6704 36.2765 31.1647 35.3035 32.0259 34.7312C33.2388 33.9254 35.0092 32.8229 36.2336 32.3813C42.3243 30.185 48.4153 25.1673 50.5799 23.2745C51.0381 22.8739 51.7379 22.9155 52.137 23.375L56.3734 28.2521C56.4088 28.2929 56.4431 28.3306 56.481 28.369C56.9242 28.8173 60.0182 31.8663 63.9387 33.6791C66.433 34.8325 69.2136 35.3239 71.3193 35.5295C73.1418 35.7074 74.6704 37.1905 74.6704 39.0217V40.2408V49.3415V54.192C74.6704 65.497 66.1435 74.8103 55.1704 76.0515V77.5C55.1704 83.0229 59.6476 87.5 65.1704 87.5H76.6704H86.6704C89.8696 87.5 89.8704 85.1545 89.4867 83.2774C89.3609 82.6622 89.1258 82.0784 88.8907 81.4946L88.8907 81.4945L88.8906 81.4943C88.7985 81.2656 88.7064 81.0369 88.6209 80.8063C87.7642 78.4966 87.3352 74.8367 88.6704 72.5C90.2704 69.7 91.6704 66 91.6704 62.5C91.1704 58.5 89.1704 55 87.6704 52.5C87.5638 52.3224 87.4433 52.127 87.3125 51.9151L87.3124 51.915C86.1016 49.953 84.0189 46.5784 84.1151 42.8141Z" fill="#B8C1EC"/>
<path d="M84.1151 42.8141L81.3759 42.2341L81.3226 42.4856L81.316 42.7426L84.1151 42.8141ZM21.2257 42.8141L24.0248 42.7426L24.0182 42.4856L23.965 42.2341L21.2257 42.8141ZM18.0284 51.915L20.3975 53.4075L20.4044 53.3965L20.4112 53.3855L18.0284 51.915ZM18.0282 51.9153L15.6592 50.4228L15.6523 50.4337L15.6455 50.4447L18.0282 51.9153ZM17.6704 52.5L20.0714 53.9406L20.0714 53.9406L17.6704 52.5ZM13.6704 62.5L10.892 62.1527L10.8704 62.3257V62.5H13.6704ZM16.6704 72.5L19.1015 71.1108H19.1015L16.6704 72.5ZM15.7799 80.8342L18.3108 82.0319L18.3112 82.031L15.7799 80.8342ZM15.7383 80.9221L18.269 82.1202L18.2692 82.1198L15.7383 80.9221ZM14.957 83.2966L12.1629 83.1149H12.1629L14.957 83.2966ZM50.1704 76.0515H52.9704V73.5504L50.4851 73.2693L50.1704 76.0515ZM32.0259 34.7312L30.4764 32.3991H30.4764L32.0259 34.7312ZM36.2336 32.3813L35.2838 29.7473L35.2837 29.7474L36.2336 32.3813ZM50.5799 23.2745L48.7367 21.1667V21.1667L50.5799 23.2745ZM52.137 23.375L50.0231 25.2112L50.0231 25.2112L52.137 23.375ZM56.3734 28.2521L58.4873 26.416L58.4873 26.416L56.3734 28.2521ZM56.481 28.369L54.4897 30.3374L54.4897 30.3374L56.481 28.369ZM63.9387 33.6791L65.1139 31.1377L63.9387 33.6791ZM71.3193 35.5295L71.5914 32.7427L71.3193 35.5295ZM55.1704 76.0515L54.8557 73.2693L52.3704 73.5504V76.0515H55.1704ZM89.4867 83.2774L86.7434 83.8382V83.8382L89.4867 83.2774ZM88.8907 81.4946L86.2344 82.38L86.2615 82.4612L86.2934 82.5406L88.8907 81.4946ZM88.8906 81.4943L91.5469 80.6089L91.5199 80.5277L91.4879 80.4483L88.8906 81.4943ZM88.6209 80.8063L85.9956 81.78L85.9956 81.78L88.6209 80.8063ZM88.6704 72.5L86.2393 71.1108V71.1108L88.6704 72.5ZM91.6704 62.5H94.4704V62.3257L94.4488 62.1527L91.6704 62.5ZM87.6704 52.5L85.2694 53.9405L85.2694 53.9406L87.6704 52.5ZM87.3125 51.9151L84.8814 53.3043L84.9049 53.3455L84.9298 53.3858L87.3125 51.9151ZM87.3124 51.915L89.7435 50.5258L89.72 50.4847L89.6952 50.4444L87.3124 51.915ZM81.8704 37.5C81.8704 39.1193 81.7004 40.7013 81.3759 42.2341L86.8544 43.3942C87.2589 41.4836 87.4704 39.5128 87.4704 37.5H81.8704ZM52.6704 11.8C69.1109 11.8 81.8704 23.6024 81.8704 37.5H87.4704C87.4704 19.9174 71.5762 6.2 52.6704 6.2V11.8ZM23.4704 37.5C23.4704 23.6024 36.23 11.8 52.6704 11.8V6.2C33.7646 6.2 17.8704 19.9174 17.8704 37.5H23.4704ZM23.965 42.2341C23.6404 40.7013 23.4704 39.1193 23.4704 37.5H17.8704C17.8704 39.5128 18.0819 41.4836 18.4864 43.3942L23.965 42.2341ZM20.4112 53.3855C21.5647 51.5164 24.1454 47.4589 24.0248 42.7426L18.4266 42.8857C18.4985 45.6979 16.9138 48.3897 15.6457 50.4444L20.4112 53.3855ZM20.3973 53.4078L20.3975 53.4075L15.6594 50.4225L15.6592 50.4228L20.3973 53.4078ZM20.0714 53.9406C20.1672 53.781 20.2779 53.6015 20.411 53.3858L15.6455 50.4447C15.5172 50.6526 15.3868 50.8638 15.2694 51.0594L20.0714 53.9406ZM16.4488 62.8473C16.8681 59.4926 18.5694 56.444 20.0714 53.9406L15.2694 51.0594C13.7715 53.556 11.4727 57.5074 10.892 62.1527L16.4488 62.8473ZM19.1015 71.1108C17.6357 68.5457 16.4704 65.3341 16.4704 62.5H10.8704C10.8704 66.6659 12.5051 70.8543 14.2393 73.8892L19.1015 71.1108ZM18.3112 82.031C18.9276 80.7272 19.5885 78.9786 19.8979 77.1481C20.1966 75.3807 20.2404 73.1039 19.1015 71.1108L14.2393 73.8892C14.4411 74.2422 14.5852 74.9786 14.3762 76.2148C14.178 77.3878 13.7233 78.6332 13.2485 79.6375L18.3112 82.031ZM18.2692 82.1198L18.3108 82.0319L13.2489 79.6365L13.2073 79.7244L18.2692 82.1198ZM17.7511 83.4784C17.7651 83.2629 17.8645 82.9746 18.269 82.1202L13.2075 79.724C12.8908 80.3929 12.2582 81.6507 12.1629 83.1149L17.7511 83.4784ZM18.6704 84.7C18.2138 84.7 18.0112 84.6174 17.9568 84.5908C17.9163 84.571 17.9121 84.5628 17.9013 84.5466C17.8784 84.5123 17.8254 84.4132 17.7864 84.2116C17.7473 84.0097 17.7329 83.7583 17.7511 83.4784L12.1629 83.1149C12.0819 84.36 12.2187 86.12 13.2435 87.6554C14.3915 89.3754 16.3017 90.3 18.6704 90.3V84.7ZM28.6704 84.7H18.6704V90.3H28.6704V84.7ZM40.1704 84.7H28.6704V90.3H40.1704V84.7ZM47.3704 77.5C47.3704 81.4765 44.1469 84.7 40.1704 84.7V90.3C47.2397 90.3 52.9704 84.5692 52.9704 77.5H47.3704ZM47.3704 76.0515V77.5H52.9704V76.0515H47.3704ZM50.4851 73.2693C40.9115 72.1864 33.4704 64.0562 33.4704 54.192H27.8704C27.8704 66.9377 37.4831 77.4343 49.8557 78.8338L50.4851 73.2693ZM33.4704 54.192V50.4359H27.8704V54.192H33.4704ZM33.4704 50.4359V40.2408H27.8704V50.4359H33.4704ZM33.4704 40.2408V37.3105H27.8704V40.2408H33.4704ZM33.4704 37.3105C33.4704 37.1625 33.5374 37.0887 33.5755 37.0634L30.4764 32.3991C28.792 33.5182 27.8704 35.3904 27.8704 37.3105H33.4704ZM33.5755 37.0634C34.8238 36.2339 36.3251 35.3248 37.1835 35.0153L35.2837 29.7474C33.6933 30.3209 31.6537 31.6168 30.4764 32.3991L33.5755 37.0634ZM37.1834 35.0153C43.811 32.6254 50.2428 27.2888 52.423 25.3823L48.7367 21.1667C46.5878 23.0458 40.8376 27.7446 35.2838 29.7473L37.1834 35.0153ZM52.423 25.3823C51.7369 25.9823 50.66 25.9443 50.0231 25.2112L54.2509 21.5389C52.8158 19.8867 50.3392 19.7654 48.7367 21.1667L52.423 25.3823ZM50.0231 25.2112L54.2595 30.0883L58.4873 26.416L54.2509 21.5389L50.0231 25.2112ZM54.2595 30.0883C54.3225 30.1608 54.3985 30.2451 54.4897 30.3374L58.4724 26.4006C58.4794 26.4077 58.485 26.4137 58.4885 26.4175C58.4917 26.421 58.4918 26.4212 58.4873 26.416L54.2595 30.0883ZM54.4897 30.3374C54.9897 30.8432 58.3717 34.1898 62.7635 36.2206L65.1139 31.1377C61.6647 29.5428 58.8587 26.7915 58.4724 26.4006L54.4897 30.3374ZM62.7635 36.2206C65.6608 37.5603 68.7913 38.096 71.0472 38.3162L71.5914 32.7427C69.6358 32.5518 67.2052 32.1047 65.1139 31.1377L62.7635 36.2206ZM71.0472 38.3162C71.2916 38.3401 71.5215 38.4553 71.6793 38.6162C71.829 38.7689 71.8704 38.9118 71.8704 39.0217H77.4704C77.4704 35.5574 74.6485 33.0412 71.5914 32.7427L71.0472 38.3162ZM71.8704 39.0217V40.2408H77.4704V39.0217H71.8704ZM71.8704 40.2408V49.3415H77.4704V40.2408H71.8704ZM71.8704 49.3415V54.192H77.4704V49.3415H71.8704ZM71.8704 54.192C71.8704 64.0562 64.4293 72.1864 54.8557 73.2693L55.4851 78.8338C67.8578 77.4343 77.4704 66.9377 77.4704 54.192H71.8704ZM57.9704 77.5V76.0515H52.3704V77.5H57.9704ZM65.1704 84.7C61.194 84.7 57.9704 81.4765 57.9704 77.5H52.3704C52.3704 84.5692 58.1012 90.3 65.1704 90.3V84.7ZM76.6704 84.7H65.1704V90.3H76.6704V84.7ZM86.6704 84.7H76.6704V90.3H86.6704V84.7ZM86.7434 83.8382C86.8192 84.2088 86.8566 84.5142 86.8585 84.7516C86.8605 84.998 86.8227 85.0498 86.8488 84.9889C86.8658 84.9495 86.9012 84.8837 86.9637 84.8123C87.0279 84.7393 87.0946 84.69 87.1435 84.6626C87.2347 84.6114 87.1445 84.7 86.6704 84.7V90.3C87.796 90.3 88.9055 90.0955 89.8847 89.5458C90.9067 88.9721 91.5957 88.1283 91.9954 87.1963C92.7119 85.5259 92.4352 83.7205 92.23 82.7166L86.7434 83.8382ZM86.2934 82.5406C86.5449 83.1651 86.6771 83.514 86.7434 83.8382L92.23 82.7166C92.0447 81.8105 91.7068 80.9918 91.488 80.4486L86.2934 82.5406ZM86.2344 82.3799L86.2344 82.38L91.547 80.6092L91.547 80.609L86.2344 82.3799ZM86.2343 82.3798L86.2344 82.3799L91.547 80.609L91.5469 80.6089L86.2343 82.3798ZM85.9956 81.78C86.0969 82.0531 86.2037 82.3177 86.2934 82.5404L91.4879 80.4483C91.3933 80.2135 91.3159 80.0208 91.2461 79.8326L85.9956 81.78ZM86.2393 71.1108C85.2173 72.8993 84.9689 74.9795 85.0251 76.7521C85.0824 78.5597 85.4654 80.3505 85.9956 81.78L91.2461 79.8326C90.9197 78.9525 90.6598 77.7585 90.6223 76.5745C90.5836 75.3555 90.7882 74.4374 91.1015 73.8892L86.2393 71.1108ZM88.8704 62.5C88.8704 65.3341 87.7051 68.5457 86.2393 71.1108L91.1015 73.8892C92.8357 70.8543 94.4704 66.6659 94.4704 62.5H88.8704ZM85.2694 53.9406C86.7715 56.444 88.4727 59.4926 88.892 62.8473L94.4488 62.1527C93.8681 57.5074 91.5694 53.556 90.0714 51.0594L85.2694 53.9406ZM84.9298 53.3858C85.063 53.6015 85.1737 53.781 85.2694 53.9405L90.0714 51.0595C89.954 50.8638 89.8235 50.6525 89.6952 50.4445L84.9298 53.3858ZM84.8813 53.3042L84.8814 53.3043L89.7436 50.5259L89.7435 50.5258L84.8813 53.3042ZM81.316 42.7426C81.1955 47.4589 83.7761 51.5164 84.9296 53.3855L89.6952 50.4444C88.427 48.3897 86.8423 45.6979 86.9142 42.8857L81.316 42.7426Z" fill="#0A0A0A" mask="url(#path-1-outside-1_27_60)"/>
<path d="M51.6704 70L37.6704 73.5L55.1704 89.5L69.6704 73.5L51.6704 70Z" fill="#EEBBC3"/>
<path d="M28.6704 87.0357V96H76.6704V87.0357C76.6704 79.1273 70.5587 72.5634 62.6704 72L52.6704 85.0435L42.6704 72C34.7821 72.5634 28.6704 79.1273 28.6704 87.0357Z" fill="#232946"/>
<path d="M71.3847 96C71.3847 83.5 69.1704 80 61.6704 74L63.3847 71L67.9561 72.0638L75.3847 82.1702L77.6704 96H71.3847Z" fill="#232946"/>
<path d="M28.6704 96V90.8661C28.6704 81.951 34.2747 73.9985 42.6704 71V71L52.6704 87L62.6704 71V71C71.0661 73.9985 76.6704 81.951 76.6704 90.8661V94" stroke="#0A0A0A" stroke-width="2.8" stroke-linecap="round" stroke-linejoin="round"/>
<rect x="24.2704" y="49.6" width="10.8" height="9.8" rx="4.9" fill="#EEBBC3" stroke="#0A0A0A" stroke-width="2.8"/>
<rect x="70.2704" y="49.6" width="10.8" height="9.8" rx="4.9" fill="#EEBBC3" stroke="#0A0A0A" stroke-width="2.8"/>
<rect x="30.2704" y="18.6" width="43.8" height="56.8" rx="21.9" fill="#EEBBC3" stroke="#0A0A0A" stroke-width="2.8"/>
<path d="M56.9449 64.1385C55.5979 65.1752 52.0573 66.6627 48.6704 64.3199" stroke="#0A0A0A" stroke-width="2.8" stroke-linecap="round"/>
<circle cx="43.1704" cy="50.5" r="5.9" fill="white" stroke="#0A0A0A" stroke-width="2.8"/>
<circle cx="43.0704" cy="50.4" r="1.4" fill="#0A0A0A"/>
<circle cx="62.1704" cy="50.5" r="5.9" fill="white" stroke="#0A0A0A" stroke-width="2.8"/>
<circle cx="62.0704" cy="50.4" r="1.4" fill="#0A0A0A"/>
<path d="M39.6704 40.2752C40.3371 39.6085 42.3704 38.4752 45.1704 39.2752" stroke="#0A0A0A" stroke-width="2.8" stroke-linecap="round"/>
<path d="M65.1704 40.2752C64.5037 39.6085 62.4704 38.4752 59.6704 39.2752" stroke="#0A0A0A" stroke-width="2.8" stroke-linecap="round"/>
<g clip-path="url(#clip0_27_60)">
<mask id="path-17-outside-2_27_60" maskUnits="userSpaceOnUse" x="10.6704" y="6" width="84" height="85" fill="black">
<rect fill="white" x="10.6704" y="6" width="84" height="85"/>
<path fill-rule="evenodd" clip-rule="evenodd" d="M84.6704 37.5C84.6704 39.3161 84.4797 41.0924 84.1151 42.8141C84.0189 46.5784 86.1016 49.953 87.3124 51.915L87.3125 51.9151C87.4433 52.127 87.5638 52.3224 87.6704 52.5C89.1704 55 91.1704 58.5 91.6704 62.5C91.6704 66 90.2704 69.7 88.6704 72.5C87.3298 74.8461 88.4698 78.5262 89.561 80.8342L89.6026 80.9221L89.6026 80.9222C89.9632 81.6838 90.3291 82.4568 90.3838 83.2966C90.5057 85.1705 89.8587 87.5 86.6704 87.5H76.6704H66.6704H65.1704H40.1704H38.6704H28.6704H18.6704C15.4821 87.5 14.8351 85.1705 14.957 83.2966C15.0117 82.4568 15.3777 81.6838 15.7383 80.9221L15.7799 80.8342C16.871 78.5262 18.0111 74.8461 16.6704 72.5C15.0704 69.7 13.6704 66 13.6704 62.5C14.1704 58.5 16.1704 55 17.6704 52.5C17.777 52.3224 17.8975 52.1271 18.0282 51.9153L18.0284 51.915C19.2393 49.953 21.3219 46.5784 21.2257 42.8141C20.8611 41.0924 20.6704 39.3161 20.6704 37.5C20.6704 21.7599 34.9973 9 52.6704 9C70.3435 9 84.6704 21.7599 84.6704 37.5ZM34.7622 32.3813C33.4621 32.824 31.5808 33.9309 30.2961 34.7373C29.3943 35.3034 28.8702 36.3009 28.8702 37.3656V40.2407V50.4359V52.8919C28.8702 65.7602 39.302 76.1919 52.1702 76.1919C65.0384 76.1919 75.4702 65.7602 75.4702 52.8919V49.3414V40.2407V39.0138C75.4702 37.1856 73.9457 35.7046 72.1243 35.5476C69.8719 35.3534 66.8271 34.8678 64.1044 33.6791C59.9479 31.8644 56.6686 28.811 56.2046 28.3676C56.1654 28.3301 56.1299 28.2933 56.0932 28.2534L51.5439 23.3083C51.1481 22.878 50.4792 22.8412 50.029 23.2142C47.8031 25.0585 41.2825 30.1612 34.7622 32.3813Z"/>
</mask>
<path fill-rule="evenodd" clip-rule="evenodd" d="M84.6704 37.5C84.6704 39.3161 84.4797 41.0924 84.1151 42.8141C84.0189 46.5784 86.1016 49.953 87.3124 51.915L87.3125 51.9151C87.4433 52.127 87.5638 52.3224 87.6704 52.5C89.1704 55 91.1704 58.5 91.6704 62.5C91.6704 66 90.2704 69.7 88.6704 72.5C87.3298 74.8461 88.4698 78.5262 89.561 80.8342L89.6026 80.9221L89.6026 80.9222C89.9632 81.6838 90.3291 82.4568 90.3838 83.2966C90.5057 85.1705 89.8587 87.5 86.6704 87.5H76.6704H66.6704H65.1704H40.1704H38.6704H28.6704H18.6704C15.4821 87.5 14.8351 85.1705 14.957 83.2966C15.0117 82.4568 15.3777 81.6838 15.7383 80.9221L15.7799 80.8342C16.871 78.5262 18.0111 74.8461 16.6704 72.5C15.0704 69.7 13.6704 66 13.6704 62.5C14.1704 58.5 16.1704 55 17.6704 52.5C17.777 52.3224 17.8975 52.1271 18.0282 51.9153L18.0284 51.915C19.2393 49.953 21.3219 46.5784 21.2257 42.8141C20.8611 41.0924 20.6704 39.3161 20.6704 37.5C20.6704 21.7599 34.9973 9 52.6704 9C70.3435 9 84.6704 21.7599 84.6704 37.5ZM34.7622 32.3813C33.4621 32.824 31.5808 33.9309 30.2961 34.7373C29.3943 35.3034 28.8702 36.3009 28.8702 37.3656V40.2407V50.4359V52.8919C28.8702 65.7602 39.302 76.1919 52.1702 76.1919C65.0384 76.1919 75.4702 65.7602 75.4702 52.8919V49.3414V40.2407V39.0138C75.4702 37.1856 73.9457 35.7046 72.1243 35.5476C69.8719 35.3534 66.8271 34.8678 64.1044 33.6791C59.9479 31.8644 56.6686 28.811 56.2046 28.3676C56.1654 28.3301 56.1299 28.2933 56.0932 28.2534L51.5439 23.3083C51.1481 22.878 50.4792 22.8412 50.029 23.2142C47.8031 25.0585 41.2825 30.1612 34.7622 32.3813Z" fill="#B8C1EC"/>
<path d="M84.1151 42.8141L81.3759 42.2341L81.3226 42.4856L81.316 42.7426L84.1151 42.8141ZM87.3124 51.915L89.7435 50.5258L89.72 50.4847L89.6952 50.4444L87.3124 51.915ZM87.3125 51.9151L84.8814 53.3043L84.9049 53.3455L84.9298 53.3858L87.3125 51.9151ZM87.6704 52.5L85.2694 53.9405L85.2694 53.9406L87.6704 52.5ZM91.6704 62.5H94.4704V62.3257L94.4488 62.1527L91.6704 62.5ZM88.6704 72.5L86.2393 71.1108L88.6704 72.5ZM89.561 80.8342L87.0296 82.031L87.0301 82.032L89.561 80.8342ZM89.6026 80.9221L92.2589 80.0367L92.2056 79.8767L92.1334 79.7243L89.6026 80.9221ZM89.6026 80.9222L86.9463 81.8076L86.9997 81.9677L87.0719 82.1203L89.6026 80.9222ZM90.3838 83.2966L93.1779 83.1149V83.1148L90.3838 83.2966ZM14.957 83.2966L12.1629 83.1149H12.1629L14.957 83.2966ZM15.7383 80.9221L18.269 82.1202L18.2692 82.1198L15.7383 80.9221ZM15.7799 80.8342L18.3108 82.0319L18.3112 82.031L15.7799 80.8342ZM16.6704 72.5L19.1015 71.1108H19.1015L16.6704 72.5ZM13.6704 62.5L10.892 62.1527L10.8704 62.3257V62.5H13.6704ZM17.6704 52.5L20.0714 53.9406L20.0714 53.9406L17.6704 52.5ZM18.0282 51.9153L15.6592 50.4228L15.6523 50.4337L15.6455 50.4447L18.0282 51.9153ZM18.0284 51.915L20.3975 53.4075L20.4044 53.3965L20.4112 53.3855L18.0284 51.915ZM21.2257 42.8141L24.0248 42.7426L24.0182 42.4856L23.965 42.2341L21.2257 42.8141ZM30.2961 34.7373L28.8075 32.3658L28.8075 32.3658L30.2961 34.7373ZM34.7622 32.3813L33.8597 29.7307L33.8596 29.7307L34.7622 32.3813ZM72.1243 35.5476L71.8838 38.3372H71.8838L72.1243 35.5476ZM64.1044 33.6791L65.2247 31.113H65.2247L64.1044 33.6791ZM56.2046 28.3676L54.2702 30.392L54.2702 30.392L56.2046 28.3676ZM56.0932 28.2534L54.0326 30.1491L54.0326 30.1491L56.0932 28.2534ZM51.5439 23.3083L49.4833 25.204L49.4833 25.204L51.5439 23.3083ZM50.029 23.2142L48.2426 21.0581L48.2426 21.0581L50.029 23.2142ZM86.8544 43.3942C87.2589 41.4836 87.4704 39.5128 87.4704 37.5H81.8704C81.8704 39.1193 81.7004 40.7013 81.3759 42.2341L86.8544 43.3942ZM89.6952 50.4444C88.427 48.3897 86.8423 45.6979 86.9142 42.8857L81.316 42.7426C81.1955 47.4589 83.7761 51.5164 84.9296 53.3855L89.6952 50.4444ZM89.7436 50.5259L89.7435 50.5258L84.8813 53.3042L84.8814 53.3043L89.7436 50.5259ZM90.0714 51.0595C89.954 50.8638 89.8235 50.6525 89.6952 50.4445L84.9298 53.3858C85.063 53.6015 85.1737 53.781 85.2694 53.9405L90.0714 51.0595ZM94.4488 62.1527C93.8681 57.5074 91.5694 53.556 90.0714 51.0594L85.2694 53.9406C86.7715 56.444 88.4727 59.4926 88.892 62.8473L94.4488 62.1527ZM91.1015 73.8892C92.8357 70.8543 94.4704 66.6659 94.4704 62.5H88.8704C88.8704 65.3341 87.7051 68.5457 86.2393 71.1108L91.1015 73.8892ZM92.0923 79.6374C91.6175 78.6332 91.1629 77.3878 90.9646 76.2148C90.7557 74.9786 90.8997 74.2422 91.1015 73.8892L86.2393 71.1108C85.1004 73.1039 85.1442 75.3807 85.4429 77.1481C85.7523 78.9786 86.4132 80.7272 87.0296 82.031L92.0923 79.6374ZM92.1334 79.7243L92.0919 79.6364L87.0301 82.032L87.0717 82.1199L92.1334 79.7243ZM92.2589 80.0367L92.2589 80.0367L86.9463 81.8075L86.9463 81.8076L92.2589 80.0367ZM93.1779 83.1148C93.0826 81.6508 92.45 80.393 92.1333 79.7241L87.0719 82.1203C87.4763 82.9746 87.5757 83.2629 87.5897 83.4784L93.1779 83.1148ZM86.6704 90.3C89.0391 90.3 90.9494 89.3754 92.0973 87.6554C93.1221 86.12 93.2589 84.36 93.1779 83.1149L87.5897 83.4784C87.6079 83.7583 87.5935 84.0097 87.5544 84.2116C87.5154 84.4132 87.4624 84.5123 87.4395 84.5466C87.4287 84.5628 87.4245 84.571 87.384 84.5908C87.3296 84.6174 87.127 84.7 86.6704 84.7V90.3ZM76.6704 90.3H86.6704V84.7H76.6704V90.3ZM66.6704 90.3H76.6704V84.7H66.6704V90.3ZM65.1704 90.3H66.6704V84.7H65.1704V90.3ZM40.1704 90.3H65.1704V84.7H40.1704V90.3ZM38.6704 90.3H40.1704V84.7H38.6704V90.3ZM28.6704 90.3H38.6704V84.7H28.6704V90.3ZM18.6704 90.3H28.6704V84.7H18.6704V90.3ZM12.1629 83.1149C12.0819 84.36 12.2187 86.12 13.2435 87.6554C14.3915 89.3754 16.3017 90.3 18.6704 90.3V84.7C18.2138 84.7 18.0112 84.6174 17.9568 84.5908C17.9163 84.571 17.9121 84.5628 17.9013 84.5466C17.8784 84.5123 17.8254 84.4132 17.7864 84.2116C17.7473 84.0097 17.7329 83.7583 17.7511 83.4784L12.1629 83.1149ZM13.2075 79.724C12.8908 80.3929 12.2582 81.6507 12.1629 83.1149L17.7511 83.4784C17.7651 83.2629 17.8645 82.9746 18.269 82.1202L13.2075 79.724ZM13.2489 79.6365L13.2073 79.7244L18.2692 82.1198L18.3108 82.0319L13.2489 79.6365ZM14.2393 73.8892C14.4411 74.2422 14.5852 74.9786 14.3762 76.2148C14.178 77.3878 13.7233 78.6332 13.2485 79.6375L18.3112 82.031C18.9276 80.7272 19.5885 78.9786 19.8979 77.1481C20.1966 75.3807 20.2404 73.1039 19.1015 71.1108L14.2393 73.8892ZM10.8704 62.5C10.8704 66.6659 12.5051 70.8543 14.2393 73.8892L19.1015 71.1108C17.6357 68.5457 16.4704 65.3341 16.4704 62.5H10.8704ZM15.2694 51.0594C13.7715 53.556 11.4727 57.5074 10.892 62.1527L16.4488 62.8473C16.8681 59.4926 18.5694 56.444 20.0714 53.9406L15.2694 51.0594ZM15.6455 50.4447C15.5172 50.6526 15.3868 50.8638 15.2694 51.0594L20.0714 53.9406C20.1672 53.781 20.2779 53.6015 20.411 53.3858L15.6455 50.4447ZM15.6594 50.4225L15.6592 50.4228L20.3973 53.4078L20.3975 53.4075L15.6594 50.4225ZM18.4266 42.8857C18.4985 45.6979 16.9138 48.3897 15.6457 50.4444L20.4112 53.3855C21.5647 51.5164 24.1454 47.4589 24.0248 42.7426L18.4266 42.8857ZM17.8704 37.5C17.8704 39.5128 18.0819 41.4836 18.4864 43.3942L23.965 42.2341C23.6404 40.7013 23.4704 39.1193 23.4704 37.5H17.8704ZM52.6704 6.2C33.7646 6.2 17.8704 19.9174 17.8704 37.5H23.4704C23.4704 23.6024 36.23 11.8 52.6704 11.8V6.2ZM87.4704 37.5C87.4704 19.9174 71.5762 6.2 52.6704 6.2V11.8C69.1109 11.8 81.8704 23.6024 81.8704 37.5H87.4704ZM31.7846 37.1089C33.1022 36.2819 34.7198 35.3536 35.6647 35.0318L33.8596 29.7307C32.2044 30.2944 30.0594 31.58 28.8075 32.3658L31.7846 37.1089ZM31.6702 37.3656C31.6702 37.2138 31.7408 37.1364 31.7846 37.1089L28.8075 32.3658C27.0477 33.4703 26.0702 35.388 26.0702 37.3656H31.6702ZM31.6702 40.2407V37.3656H26.0702V40.2407H31.6702ZM31.6702 50.4359V40.2407H26.0702V50.4359H31.6702ZM31.6702 52.8919V50.4359H26.0702V52.8919H31.6702ZM52.1702 73.3919C40.8484 73.3919 31.6702 64.2138 31.6702 52.8919H26.0702C26.0702 67.3066 37.7556 78.9919 52.1702 78.9919V73.3919ZM72.6702 52.8919C72.6702 64.2138 63.4921 73.3919 52.1702 73.3919V78.9919C66.5848 78.9919 78.2702 67.3066 78.2702 52.8919H72.6702ZM72.6702 49.3414V52.8919H78.2702V49.3414H72.6702ZM72.6702 40.2407V49.3414H78.2702V40.2407H72.6702ZM72.6702 39.0138V40.2407H78.2702V39.0138H72.6702ZM71.8838 38.3372C72.1153 38.3572 72.3337 38.4647 72.485 38.6184C72.6286 38.7643 72.6702 38.9037 72.6702 39.0138H78.2702C78.2702 35.5576 75.4531 33.0242 72.3648 32.7579L71.8838 38.3372ZM62.984 36.2452C66.1056 37.6081 69.4932 38.1312 71.8838 38.3372L72.3648 32.7579C70.2505 32.5757 67.5486 32.1276 65.2247 31.113L62.984 36.2452ZM54.2702 30.392C54.7967 30.8951 58.3646 34.2284 62.984 36.2452L65.2247 31.113C61.5312 29.5005 58.5404 26.7268 58.139 26.3432L54.2702 30.392ZM54.0326 30.1491C54.0979 30.2202 54.1763 30.3023 54.2702 30.392L58.139 26.3432C58.1461 26.35 58.1517 26.3557 58.1552 26.3593C58.1585 26.3626 58.1585 26.3628 58.1539 26.3577L54.0326 30.1491ZM49.4833 25.204L54.0326 30.1491L58.1539 26.3577L53.6046 21.4126L49.4833 25.204ZM51.8154 25.3703C51.1491 25.9224 50.1231 25.8995 49.4833 25.204L53.6046 21.4126C52.173 19.8564 49.8093 19.76 48.2426 21.0581L51.8154 25.3703ZM35.6646 35.0318C42.7102 32.633 49.5699 27.2308 51.8154 25.3703L48.2426 21.0581C46.0362 22.8862 39.8547 27.6895 33.8597 29.7307L35.6646 35.0318Z" fill="#0A0A0A" mask="url(#path-17-outside-2_27_60)"/>
</g>
<mask id="mask0_27_60" style="mask-type:alpha" maskUnits="userSpaceOnUse" x="10" y="6" width="85" height="85">
<mask id="path-19-outside-3_27_60" maskUnits="userSpaceOnUse" x="10.6704" y="6" width="84" height="85" fill="black">
<rect fill="white" x="10.6704" y="6" width="84" height="85"/>
<path fill-rule="evenodd" clip-rule="evenodd" d="M84.1151 42.8141C84.4797 41.0924 84.6704 39.3161 84.6704 37.5C84.6704 21.7599 70.3435 9 52.6704 9C34.9973 9 20.6704 21.7599 20.6704 37.5C20.6704 39.3161 20.8611 41.0924 21.2257 42.8141C21.3219 46.5784 19.2393 49.953 18.0284 51.915L18.0282 51.9153C17.8975 52.1271 17.777 52.3224 17.6704 52.5C16.1704 55 14.1704 58.5 13.6704 62.5C13.6704 66 15.0704 69.7 16.6704 72.5C18.0111 74.8461 16.871 78.5262 15.7799 80.8342L15.7383 80.9221C15.3777 81.6838 15.0117 82.4568 14.957 83.2966C14.8351 85.1705 15.4821 87.5 18.6704 87.5H28.6704H40.1704C45.6933 87.5 50.1704 83.0229 50.1704 77.5V76.0515C39.1973 74.8103 30.6704 65.497 30.6704 54.192V50.4359V40.2408V37.3105C30.6704 36.2765 31.1647 35.3035 32.0259 34.7312C33.2388 33.9254 35.0092 32.8229 36.2336 32.3813C42.3243 30.185 48.4153 25.1673 50.5799 23.2745C51.0381 22.8739 51.7379 22.9155 52.137 23.375L56.3734 28.2521C56.4088 28.2929 56.4431 28.3306 56.481 28.369C56.9242 28.8173 60.0182 31.8663 63.9387 33.6791C66.433 34.8325 69.2136 35.3239 71.3193 35.5295C73.1418 35.7074 74.6704 37.1905 74.6704 39.0217V40.2408V49.3415V54.192C74.6704 65.497 66.1435 74.8103 55.1704 76.0515V77.5C55.1704 83.0229 59.6476 87.5 65.1704 87.5H76.6704H86.6704C89.8696 87.5 89.8704 85.1545 89.4867 83.2774C89.3609 82.6622 89.1258 82.0784 88.8907 81.4946L88.8907 81.4945L88.8906 81.4943C88.7985 81.2656 88.7064 81.0369 88.6209 80.8063C87.7642 78.4966 87.3352 74.8367 88.6704 72.5C90.2704 69.7 91.6704 66 91.6704 62.5C91.1704 58.5 89.1704 55 87.6704 52.5C87.5638 52.3224 87.4433 52.127 87.3125 51.9151L87.3124 51.915C86.1016 49.953 84.0189 46.5784 84.1151 42.8141Z"/>
</mask>
<path fill-rule="evenodd" clip-rule="evenodd" d="M84.1151 42.8141C84.4797 41.0924 84.6704 39.3161 84.6704 37.5C84.6704 21.7599 70.3435 9 52.6704 9C34.9973 9 20.6704 21.7599 20.6704 37.5C20.6704 39.3161 20.8611 41.0924 21.2257 42.8141C21.3219 46.5784 19.2393 49.953 18.0284 51.915L18.0282 51.9153C17.8975 52.1271 17.777 52.3224 17.6704 52.5C16.1704 55 14.1704 58.5 13.6704 62.5C13.6704 66 15.0704 69.7 16.6704 72.5C18.0111 74.8461 16.871 78.5262 15.7799 80.8342L15.7383 80.9221C15.3777 81.6838 15.0117 82.4568 14.957 83.2966C14.8351 85.1705 15.4821 87.5 18.6704 87.5H28.6704H40.1704C45.6933 87.5 50.1704 83.0229 50.1704 77.5V76.0515C39.1973 74.8103 30.6704 65.497 30.6704 54.192V50.4359V40.2408V37.3105C30.6704 36.2765 31.1647 35.3035 32.0259 34.7312C33.2388 33.9254 35.0092 32.8229 36.2336 32.3813C42.3243 30.185 48.4153 25.1673 50.5799 23.2745C51.0381 22.8739 51.7379 22.9155 52.137 23.375L56.3734 28.2521C56.4088 28.2929 56.4431 28.3306 56.481 28.369C56.9242 28.8173 60.0182 31.8663 63.9387 33.6791C66.433 34.8325 69.2136 35.3239 71.3193 35.5295C73.1418 35.7074 74.6704 37.1905 74.6704 39.0217V40.2408V49.3415V54.192C74.6704 65.497 66.1435 74.8103 55.1704 76.0515V77.5C55.1704 83.0229 59.6476 87.5 65.1704 87.5H76.6704H86.6704C89.8696 87.5 89.8704 85.1545 89.4867 83.2774C89.3609 82.6622 89.1258 82.0784 88.8907 81.4946L88.8907 81.4945L88.8906 81.4943C88.7985 81.2656 88.7064 81.0369 88.6209 80.8063C87.7642 78.4966 87.3352 74.8367 88.6704 72.5C90.2704 69.7 91.6704 66 91.6704 62.5C91.1704 58.5 89.1704 55 87.6704 52.5C87.5638 52.3224 87.4433 52.127 87.3125 51.9151L87.3124 51.915C86.1016 49.953 84.0189 46.5784 84.1151 42.8141Z" fill="#8667FF"/>
<path d="M84.1151 42.8141L81.3759 42.2341L81.3226 42.4856L81.316 42.7426L84.1151 42.8141ZM21.2257 42.8141L24.0248 42.7426L24.0182 42.4856L23.965 42.2341L21.2257 42.8141ZM18.0284 51.915L20.3975 53.4075L20.4044 53.3965L20.4112 53.3855L18.0284 51.915ZM18.0282 51.9153L15.6592 50.4228L15.6523 50.4337L15.6455 50.4447L18.0282 51.9153ZM17.6704 52.5L20.0714 53.9406L20.0714 53.9406L17.6704 52.5ZM13.6704 62.5L10.892 62.1527L10.8704 62.3257V62.5H13.6704ZM16.6704 72.5L19.1015 71.1108H19.1015L16.6704 72.5ZM15.7799 80.8342L18.3108 82.0319L18.3112 82.031L15.7799 80.8342ZM15.7383 80.9221L18.269 82.1202L18.2692 82.1198L15.7383 80.9221ZM14.957 83.2966L12.1629 83.1149H12.1629L14.957 83.2966ZM50.1704 76.0515H52.9704V73.5504L50.4851 73.2693L50.1704 76.0515ZM32.0259 34.7312L30.4764 32.3991H30.4764L32.0259 34.7312ZM36.2336 32.3813L35.2838 29.7473L35.2837 29.7474L36.2336 32.3813ZM50.5799 23.2745L48.7367 21.1667V21.1667L50.5799 23.2745ZM52.137 23.375L50.0231 25.2112L50.0231 25.2112L52.137 23.375ZM56.3734 28.2521L58.4873 26.416L58.4873 26.416L56.3734 28.2521ZM56.481 28.369L54.4897 30.3374L54.4897 30.3374L56.481 28.369ZM63.9387 33.6791L65.1139 31.1377L63.9387 33.6791ZM71.3193 35.5295L71.5914 32.7427L71.3193 35.5295ZM55.1704 76.0515L54.8557 73.2693L52.3704 73.5504V76.0515H55.1704ZM89.4867 83.2774L86.7434 83.8382V83.8382L89.4867 83.2774ZM88.8907 81.4946L86.2344 82.38L86.2615 82.4612L86.2934 82.5406L88.8907 81.4946ZM88.8906 81.4943L91.5469 80.6089L91.5199 80.5277L91.4879 80.4483L88.8906 81.4943ZM88.6209 80.8063L85.9956 81.78L85.9956 81.78L88.6209 80.8063ZM88.6704 72.5L86.2393 71.1108V71.1108L88.6704 72.5ZM91.6704 62.5H94.4704V62.3257L94.4488 62.1527L91.6704 62.5ZM87.6704 52.5L85.2694 53.9405L85.2694 53.9406L87.6704 52.5ZM87.3125 51.9151L84.8814 53.3043L84.9049 53.3455L84.9298 53.3858L87.3125 51.9151ZM87.3124 51.915L89.7435 50.5258L89.72 50.4847L89.6952 50.4444L87.3124 51.915ZM81.8704 37.5C81.8704 39.1193 81.7004 40.7013 81.3759 42.2341L86.8544 43.3942C87.2589 41.4836 87.4704 39.5128 87.4704 37.5H81.8704ZM52.6704 11.8C69.1109 11.8 81.8704 23.6024 81.8704 37.5H87.4704C87.4704 19.9174 71.5762 6.2 52.6704 6.2V11.8ZM23.4704 37.5C23.4704 23.6024 36.23 11.8 52.6704 11.8V6.2C33.7646 6.2 17.8704 19.9174 17.8704 37.5H23.4704ZM23.965 42.2341C23.6404 40.7013 23.4704 39.1193 23.4704 37.5H17.8704C17.8704 39.5128 18.0819 41.4836 18.4864 43.3942L23.965 42.2341ZM20.4112 53.3855C21.5647 51.5164 24.1454 47.4589 24.0248 42.7426L18.4266 42.8857C18.4985 45.6979 16.9138 48.3897 15.6457 50.4444L20.4112 53.3855ZM20.3973 53.4078L20.3975 53.4075L15.6594 50.4225L15.6592 50.4228L20.3973 53.4078ZM20.0714 53.9406C20.1672 53.781 20.2779 53.6015 20.411 53.3858L15.6455 50.4447C15.5172 50.6526 15.3868 50.8638 15.2694 51.0594L20.0714 53.9406ZM16.4488 62.8473C16.8681 59.4926 18.5694 56.444 20.0714 53.9406L15.2694 51.0594C13.7715 53.556 11.4727 57.5074 10.892 62.1527L16.4488 62.8473ZM19.1015 71.1108C17.6357 68.5457 16.4704 65.3341 16.4704 62.5H10.8704C10.8704 66.6659 12.5051 70.8543 14.2393 73.8892L19.1015 71.1108ZM18.3112 82.031C18.9276 80.7272 19.5885 78.9786 19.8979 77.1481C20.1966 75.3807 20.2404 73.1039 19.1015 71.1108L14.2393 73.8892C14.4411 74.2422 14.5852 74.9786 14.3762 76.2148C14.178 77.3878 13.7233 78.6332 13.2485 79.6375L18.3112 82.031ZM18.2692 82.1198L18.3108 82.0319L13.2489 79.6365L13.2073 79.7244L18.2692 82.1198ZM17.7511 83.4784C17.7651 83.2629 17.8645 82.9746 18.269 82.1202L13.2075 79.724C12.8908 80.3929 12.2582 81.6507 12.1629 83.1149L17.7511 83.4784ZM18.6704 84.7C18.2138 84.7 18.0112 84.6174 17.9568 84.5908C17.9163 84.571 17.9121 84.5628 17.9013 84.5466C17.8784 84.5123 17.8254 84.4132 17.7864 84.2116C17.7473 84.0097 17.7329 83.7583 17.7511 83.4784L12.1629 83.1149C12.0819 84.36 12.2187 86.12 13.2435 87.6554C14.3915 89.3754 16.3017 90.3 18.6704 90.3V84.7ZM28.6704 84.7H18.6704V90.3H28.6704V84.7ZM40.1704 84.7H28.6704V90.3H40.1704V84.7ZM47.3704 77.5C47.3704 81.4765 44.1469 84.7 40.1704 84.7V90.3C47.2397 90.3 52.9704 84.5692 52.9704 77.5H47.3704ZM47.3704 76.0515V77.5H52.9704V76.0515H47.3704ZM50.4851 73.2693C40.9115 72.1864 33.4704 64.0562 33.4704 54.192H27.8704C27.8704 66.9377 37.4831 77.4343 49.8557 78.8338L50.4851 73.2693ZM33.4704 54.192V50.4359H27.8704V54.192H33.4704ZM33.4704 50.4359V40.2408H27.8704V50.4359H33.4704ZM33.4704 40.2408V37.3105H27.8704V40.2408H33.4704ZM33.4704 37.3105C33.4704 37.1625 33.5374 37.0887 33.5755 37.0634L30.4764 32.3991C28.792 33.5182 27.8704 35.3904 27.8704 37.3105H33.4704ZM33.5755 37.0634C34.8238 36.2339 36.3251 35.3248 37.1835 35.0153L35.2837 29.7474C33.6933 30.3209 31.6537 31.6168 30.4764 32.3991L33.5755 37.0634ZM37.1834 35.0153C43.811 32.6254 50.2428 27.2888 52.423 25.3823L48.7367 21.1667C46.5878 23.0458 40.8376 27.7446 35.2838 29.7473L37.1834 35.0153ZM52.423 25.3823C51.7369 25.9823 50.66 25.9443 50.0231 25.2112L54.2509 21.5389C52.8158 19.8867 50.3392 19.7654 48.7367 21.1667L52.423 25.3823ZM50.0231 25.2112L54.2595 30.0883L58.4873 26.416L54.2509 21.5389L50.0231 25.2112ZM54.2595 30.0883C54.3225 30.1608 54.3985 30.2451 54.4897 30.3374L58.4724 26.4006C58.4794 26.4077 58.485 26.4137 58.4885 26.4175C58.4917 26.421 58.4918 26.4212 58.4873 26.416L54.2595 30.0883ZM54.4897 30.3374C54.9897 30.8432 58.3717 34.1898 62.7635 36.2206L65.1139 31.1377C61.6647 29.5428 58.8587 26.7915 58.4724 26.4006L54.4897 30.3374ZM62.7635 36.2206C65.6608 37.5603 68.7913 38.096 71.0472 38.3162L71.5914 32.7427C69.6358 32.5518 67.2052 32.1047 65.1139 31.1377L62.7635 36.2206ZM71.0472 38.3162C71.2916 38.3401 71.5215 38.4553 71.6793 38.6162C71.829 38.7689 71.8704 38.9118 71.8704 39.0217H77.4704C77.4704 35.5574 74.6485 33.0412 71.5914 32.7427L71.0472 38.3162ZM71.8704 39.0217V40.2408H77.4704V39.0217H71.8704ZM71.8704 40.2408V49.3415H77.4704V40.2408H71.8704ZM71.8704 49.3415V54.192H77.4704V49.3415H71.8704ZM71.8704 54.192C71.8704 64.0562 64.4293 72.1864 54.8557 73.2693L55.4851 78.8338C67.8578 77.4343 77.4704 66.9377 77.4704 54.192H71.8704ZM57.9704 77.5V76.0515H52.3704V77.5H57.9704ZM65.1704 84.7C61.194 84.7 57.9704 81.4765 57.9704 77.5H52.3704C52.3704 84.5692 58.1012 90.3 65.1704 90.3V84.7ZM76.6704 84.7H65.1704V90.3H76.6704V84.7ZM86.6704 84.7H76.6704V90.3H86.6704V84.7ZM86.7434 83.8382C86.8192 84.2088 86.8566 84.5142 86.8585 84.7516C86.8605 84.998 86.8227 85.0498 86.8488 84.9889C86.8658 84.9495 86.9012 84.8837 86.9637 84.8123C87.0279 84.7393 87.0946 84.69 87.1435 84.6626C87.2347 84.6114 87.1445 84.7 86.6704 84.7V90.3C87.796 90.3 88.9055 90.0955 89.8847 89.5458C90.9067 88.9721 91.5957 88.1283 91.9954 87.1963C92.7119 85.5259 92.4352 83.7205 92.23 82.7166L86.7434 83.8382ZM86.2934 82.5406C86.5449 83.1651 86.6771 83.514 86.7434 83.8382L92.23 82.7166C92.0447 81.8105 91.7068 80.9918 91.488 80.4486L86.2934 82.5406ZM86.2344 82.3799L86.2344 82.38L91.547 80.6092L91.547 80.609L86.2344 82.3799ZM86.2343 82.3798L86.2344 82.3799L91.547 80.609L91.5469 80.6089L86.2343 82.3798ZM85.9956 81.78C86.0969 82.0531 86.2037 82.3177 86.2934 82.5404L91.4879 80.4483C91.3933 80.2135 91.3159 80.0208 91.2461 79.8326L85.9956 81.78ZM86.2393 71.1108C85.2173 72.8993 84.9689 74.9795 85.0251 76.7521C85.0824 78.5597 85.4654 80.3505 85.9956 81.78L91.2461 79.8326C90.9197 78.9525 90.6598 77.7585 90.6223 76.5745C90.5836 75.3555 90.7882 74.4374 91.1015 73.8892L86.2393 71.1108ZM88.8704 62.5C88.8704 65.3341 87.7051 68.5457 86.2393 71.1108L91.1015 73.8892C92.8357 70.8543 94.4704 66.6659 94.4704 62.5H88.8704ZM85.2694 53.9406C86.7715 56.444 88.4727 59.4926 88.892 62.8473L94.4488 62.1527C93.8681 57.5074 91.5694 53.556 90.0714 51.0594L85.2694 53.9406ZM84.9298 53.3858C85.063 53.6015 85.1737 53.781 85.2694 53.9405L90.0714 51.0595C89.954 50.8638 89.8235 50.6525 89.6952 50.4445L84.9298 53.3858ZM84.8813 53.3042L84.8814 53.3043L89.7436 50.5259L89.7435 50.5258L84.8813 53.3042ZM81.316 42.7426C81.1955 47.4589 83.7761 51.5164 84.9296 53.3855L89.6952 50.4444C88.427 48.3897 86.8423 45.6979 86.9142 42.8857L81.316 42.7426Z" fill="#1300EE" mask="url(#path-19-outside-3_27_60)"/>
</mask>
<g mask="url(#mask0_27_60)">
<g style="mix-blend-mode:soft-light">
<path d="M74.5625 20.3345C70.0834 13.7145 64.5168 10.8629 61.6704 10.2299C74.4434 5.00326 88.7525 13.046 90.9276 26.6744L94.0586 46.2932C94.4654 48.8417 94.6036 51.4258 94.471 54.0031L93.2099 78.5139C92.9076 84.3904 88.0547 89 82.1704 89C83.3371 88.1475 85.6704 85.8287 85.6704 83.3736C85.6704 80.3046 83.6704 77.2356 83.6704 74.1667C83.6704 71.0977 87.1704 68.0287 86.6704 62.4023C86.1704 56.7759 83.1704 55.7529 81.1704 50.1264C80.2573 47.5576 79.6264 42.6453 79.2221 37.9187C78.6971 31.7814 78.0142 25.4361 74.5625 20.3345Z" fill="#0A0A0A"/>
</g>
</g>
<path d="M45.9806 94.9839L46.4403 92.776C46.4982 92.4979 46.6147 92.2353 46.782 92.0057L47.0987 91.5711C47.7362 90.6963 48.98 90.4822 49.6463 91.3354C50.4558 92.372 51.0448 93.7943 50.3879 95.2966C49.6897 96.8936 48.294 97.1363 47.1114 96.9435C46.224 96.7988 45.7973 95.8641 45.9806 94.9839Z" fill="#FFE6EE" stroke="#0A0A0A" stroke-width="2.8" stroke-linecap="round" stroke-linejoin="round"/>
<path d="M26.823 91.1381C24.1649 91.4504 23.0785 94.5012 24.6712 96.4921L25.7277 97.8127C26.4682 98.7383 27.5132 99.4213 28.7314 99.6583C30.2852 99.9606 32.9944 100.4 35.6704 100.4C38.3464 100.4 41.0556 99.9606 42.6094 99.6583C43.8276 99.4213 44.8726 98.7383 45.6131 97.8127L46.6696 96.4921C48.2623 94.5012 47.176 91.4504 44.5178 91.1381C42.2761 90.8748 39.1146 90.6 35.6704 90.6C32.2262 90.6 29.0647 90.8748 26.823 91.1381Z" fill="white" stroke="#0A0A0A" stroke-width="2.8" stroke-linecap="round" stroke-linejoin="round"/>
<path d="M44.1704 96C46.4491 96 46.955 93.7865 47.1429 92.7068C47.1618 92.5983 47.1703 92.4893 47.1711 92.3791C47.1832 90.661 47.3732 87.4317 47.3737 87.0445C47.3742 86.6445 47.0406 85.5445 46.8737 85.0445C46.5404 84.0445 45.4736 82.0445 43.8731 82.0445C41.8725 82.0445 41.3737 83.0445 39.8737 83.0445C38.3737 83.0445 39.3737 82.5445 35.8737 82.0445C33.8319 81.7528 32.375 82.9501 31.5418 84.0076C31.073 84.6026 30.4102 84.9312 29.6684 84.7776C29.0933 84.6585 28.3282 84.5445 27.3731 84.5445C25.3726 84.5445 24.8733 85.8779 24.3737 86.5445L20.8257 91.7714C20.7228 91.9231 20.6409 92.0879 20.5813 92.2613C20.2421 93.2481 19.8131 94.5875 21.3733 95.5445C23.0781 96.5903 24.8733 94.2112 25.3733 93.5445L28.8737 89.5445C27.2737 91.9445 26.1696 94.1522 27.3731 95.2003C29.4916 97.0452 31.3891 94.7864 32.5864 93.771C32.7712 93.6142 32.9418 93.4412 33.0769 93.24C34.1462 91.6487 36.1238 88.7938 36.8731 88.0445C37.6731 87.2445 39.0404 88.2112 39.8737 88.0445L41.3235 92.3958C41.3565 92.4948 41.3816 92.5953 41.3978 92.6984C41.567 93.775 41.8858 96 44.1704 96Z" fill="#FFE6EE" stroke="#0A0A0A" stroke-width="2.8" stroke-linecap="round" stroke-linejoin="round"/>
<path d="M75.2704 81.7221C75.2704 81.7247 75.2704 81.7273 76.6704 81.7273H75.2704V96.467C75.2704 97.1962 75.4775 98.311 76.4935 98.9797C77.5656 99.6854 79.5425 100.4 83.1704 100.4C86.7983 100.4 88.7752 99.6854 89.8473 98.9797C90.8633 98.311 91.0704 97.1962 91.0704 96.467V81.7273H89.6704C91.0704 81.7273 91.0704 81.7247 91.0704 81.7221L91.0704 81.7169L91.0703 81.7062L91.0698 81.6842C91.0693 81.6693 91.0686 81.6537 91.0676 81.6375C91.0657 81.6051 91.0626 81.5705 91.0579 81.5336C91.0487 81.4599 91.0335 81.378 91.0097 81.2896C90.9618 81.1112 90.8813 80.9151 90.7549 80.7135C90.499 80.3055 90.0936 79.9349 89.5149 79.6274C88.3993 79.0345 86.4987 78.6 83.1704 78.6C79.8421 78.6 77.9415 79.0345 76.8259 79.6274C76.2473 79.9349 75.8419 80.3055 75.5859 80.7135C75.4595 80.9151 75.3791 81.1112 75.3311 81.2896C75.3074 81.378 75.2921 81.4599 75.2829 81.5336C75.2783 81.5705 75.2751 81.6051 75.2732 81.6375C75.2722 81.6537 75.2715 81.6693 75.2711 81.6842L75.2706 81.7062L75.2704 81.7169L75.2704 81.7221Z" fill="#E7E7E7" stroke="#0A0A0A" stroke-width="2.8"/>
<mask id="mask1_27_60" style="mask-type:alpha" maskUnits="userSpaceOnUse" x="73" y="77" width="20" height="26">
<path d="M75.2704 81.8133C75.2704 81.8157 75.2704 81.8182 76.6704 81.8182H75.2704V97.4112C75.2704 98.1051 75.4532 99.1737 76.4025 99.8538C77.4632 100.614 79.4574 101.4 83.1704 101.4C86.8835 101.4 88.8776 100.614 89.9383 99.8538C90.8876 99.1737 91.0704 98.1051 91.0704 97.4112V81.8182H89.6704C91.0704 81.8182 91.0704 81.8157 91.0704 81.8133L91.0704 81.8083L91.0703 81.7981L91.0698 81.7772C91.0694 81.7628 91.0688 81.7479 91.0679 81.7324C91.0661 81.7013 91.0632 81.6678 91.059 81.6321C91.0505 81.5606 91.0364 81.4806 91.0142 81.3937C90.9694 81.2183 90.8934 81.022 90.7715 80.8175C90.524 80.402 90.1247 80.0136 89.5414 79.6873C88.4173 79.0584 86.5051 78.6 83.1704 78.6C79.8358 78.6 77.9235 79.0584 76.7994 79.6873C76.2161 80.0136 75.8168 80.402 75.5693 80.8175C75.4474 81.022 75.3714 81.2183 75.3266 81.3937C75.3044 81.4806 75.2904 81.5606 75.2818 81.6321C75.2776 81.6678 75.2747 81.7013 75.2729 81.7324C75.272 81.7479 75.2714 81.7628 75.271 81.7772L75.2706 81.7981L75.2704 81.8083L75.2704 81.8133Z" fill="#E7E7E7" stroke="#1300EE" stroke-width="2.8"/>
</mask>
<g mask="url(#mask1_27_60)">
<path d="M90.7704 81.5C90.7704 81.9267 90.3881 82.6899 88.9083 83.4298C87.5122 84.1278 85.4855 84.6 83.1704 84.6C80.8553 84.6 78.8287 84.1278 77.4325 83.4298C75.9527 82.6899 75.5704 81.9267 75.5704 81.5C75.5704 81.0733 75.9527 80.3101 77.4325 79.5702C78.8287 78.8722 80.8553 78.4 83.1704 78.4C85.4855 78.4 87.5122 78.8722 88.9083 79.5702C90.3881 80.3101 90.7704 81.0733 90.7704 81.5Z" fill="#4B2900" stroke="#0A0A0A" stroke-width="2.8"/>
</g>
<path d="M92.6704 86C93.6704 86 95.6704 86.8 95.6704 90C95.6704 93.2 93.6704 94 92.6704 94" stroke="#0A0A0A" stroke-width="3" stroke-linecap="round"/>
<defs>
<clipPath id="clip0_27_60">
<rect width="78" height="33" fill="white" transform="translate(13.6704 9)"/>
</clipPath>
</defs>
</svg>
